/* XPM */
static unsigned char *AFstep[] = {
"24 23 141 2",
"  	c None",
" !	c #000000",
" #	c #000028",
" $	c #000038",
" %	c #0000D7",
" &	c #0000F7",
" '	c #0000FF",
" (	c #000418",
" )	c #000449",
" *	c #001C00",
" +	c #002C28",
" ,	c #004D00",
" -	c #005551",
" .	c #005D00",
" /	c #007500",
" 0	c #009A00",
" 1	c #00B600",
" 2	c #00D300",
" 3	c #00F300",
" 4	c #00FF00",
" 5	c #080408",
" 6	c #080808",
" 7	c #088A00",
" 8	c #08FF08",
" 9	c #100C10",
" :	c #101410",
" ;	c #181818",
" <	c #181828",
" =	c #1818DF",
" >	c #181C18",
" ?	c #183438",
" @	c #186561",
" A	c #189218",
" B	c #18B618",
" C	c #202420",
" D	c #20DB20",
" E	c #280028",
" F	c #282800",
" G	c #282828",
" H	c #282859",
" I	c #282C69",
" J	c #283428",
" K	c #286D69",
" L	c #3008FF",
" M	c #303408",
" N	c #303430",
" O	c #3034B6",
" P	c #383849",
" Q	c #383C00",
" R	c #383C38",
" S	c #383C61",
" T	c #384138",
" U	c #385551",
" V	c #411C41",
" W	c #413C38",
" X	c #414141",
" Y	c #414161",
" Z	c #414541",
" [	c #41A241",
" ]	c #490400",
" ^	c #494949",
" _	c #494959",
" `	c #494979",
" a	c #494D49",
" b	c #495549",
" c	c #511010",
" d	c #514D49",
" e	c #515149",
" f	c #515500",
" g	c #515528",
" h	c #515551",
" i	c #515559",
" j	c #516551",
" k	c #517551",
" l	c #595938",
" m	c #595D59",
" n	c #595D61",
" o	c #610808",
" p	c #615DB6",
" q	c #616161",
" r	c #616559",
" s	c #693069",
" t	c #696900",
" u	c #696961",
" v	c #696D69",
" w	c #697569",
" x	c #697979",
" y	c #710000",
" z	c #715171",
" {	c #716186",
" |	c #717128",
" }	c #717508",
" ~	c #717541",
"! 	c #717559",
"!!	c #717561",
"!#	c #717571",
"!$	c #717579",
"!%	c #797D79",
"!&	c #807B7F",
"!'	c #808B7F",
"!(	c #864D86",
"!)	c #867D79",
"!*	c #868600",
"!+	c #868686",
"!,	c #878387",
"!-	c #878787",
"!.	c #878B8F",
"!/	c #879387",
"!0	c #898686",
"!1	c #8F8B8F",
"!2	c #8F8F8F",
"!3	c #961818",
"!4	c #967596",
"!5	c #969200",
"!6	c #969296",
"!7	c #96968E",
"!8	c #9E9A9E",
"!9	c #A6AAA6",
"!:	c #AEB2AE",
"!;	c #B63028",
"!<	c #B63030",
"!=	c #B665B6",
"!>	c #B6B600",
"!?	c #B6B6B6",
"!@	c #C70000",
"!A	c #C792C7",
"!B	c #C7C700",
"!C	c #C7C718",
"!D	c #CFA6CF",
"!E	c #CFCB00",
"!F	c #D70000",
"!G	c #D7A2D7",
"!H	c #D7D318",
"!I	c #DFA6DF",
"!J	c #DFDB00",
"!K	c #E7E300",
"!L	c #EFEF00",
"!M	c #F70000",
"!N	c #FF0000",
"!O	c #FFFB00",
"!P	c #FFFF00",
"                                                ",
"                        !)!?                    ",
"                    !< ] c ? C!,                ",
"                !+ 9 6!F!M - W C Z              ",
"          !2 p ( d d o!3!@!N ? + U !!1          ",
"        !: 6!J!P!> < ) P K y!M!N @ ;            ",
"    !9 5 R #!C M Q!E!O!O!5 }!; K a i            ",
"!? ; N Z Z #!K!B!P a M!L!H S i a ^ b            ",
"!? C ^ Z h C f ~ H Z Y!  S a ^ h ;!D d!?        ",
"!1 ! N ^ ^ G (!L!P P a r ^ ^ h *  !G J h C      ",
"   ! 9 G ^ > t!P H q a m h s B 1 z!A!' C T C!:  ",
"  !9 : 9 N q _ I r i h h V 4 * 2 A k!=!0!I i :!.",
"  !& ! : : R n e e O | m E 8 3 [!( 0 V!A h h q  ",
"     ! ; ; C h m Q ' % O W 7 4 D 2 4 s w R !!/  ",
"    !1 ! ; 5 h v F ' ' O!  i . / 7 , { C 5!9    ",
"      !- ! 5!# q g ` ) & =!* L j u!4 C !!-      ",
"        !? ! 5 v n q l $ % ' O x!$ G !!,        ",
"          !9 ! 5!$ i q!! ) $!! n C !!/          ",
"            !8 6 !!6 m m v!# m > !              ",
"              !$ 6 !!7 m q h G 6                ",
"                 i 9 !!% R > >                  ",
"                   N : : > X                    ",
"                     5 5 m                      ",};
