/* XPM */
static unsigned char *BlueFeltDrawLetterD[] = {
"24 24 50 1",
" 	c #000000",
"!	c #000055",
"#	c #0000FF",
"$	c #002400",
"%	c #0024FF",
"&	c #004800",
"'	c #006D00",
"(	c #009100",
")	c #00B600",
"*	c #00DA00",
"+	c #240000",
",	c #240055",
"-	c #242400",
".	c #242455",
"/	c #2424AA",
"0	c #2424FF",
"1	c #244855",
"2	c #249155",
"3	c #24B655",
"4	c #24DA00",
"5	c #24DA55",
"6	c #4824AA",
"7	c #4824FF",
"8	c #484855",
"9	c #4848FF",
":	c #486D55",
";	c #489155",
"<	c #48B655",
"=	c #48DA55",
">	c #6D48FF",
"?	c #6D6D55",
"@	c #6D6DAA",
"A	c #6D6DFF",
"B	c #6D9155",
"C	c #6D91AA",
"D	c #6DB6AA",
"E	c #6DDA55",
"F	c #6DDAAA",
"G	c #916DFF",
"H	c #9191FF",
"I	c #91B6AA",
"J	c #91DAAA",
"K	c #B6B6AA",
"L	c #B6B6FF",
"M	c #B6DAAA",
"N	c #B6DAFF",
"O	c #B6FFFF",
"P	c #DADAFF",
"Q	c #DAFFFF",
"R	c #FFFFFF",
"888888888888888888888888",
"8$$/HNA6.+  $'RRRRRRRMJD",
"8$$/LNA6.+  &'RNNPRRRQ@J",
"8$$/LPA7.,  &'RP1RP8RR.M",
"8$&/LPG7.,  &(RR8RRCIR@M",
"8$&/NPG9.,  '(RR1RRN.R@N",
"8$&/PPH9/,  '(RR8RRCIRNQ",
"8&&6PQH9/,  ')RP1RP8RR:R",
"8&&6QQH9/, $')RNNPRRRRRR",
"8&&,,,,,,, $()RRRRRRRRRR",
"8&&/GQL9/, &))4($    1  ",
"8&&!.:8.! $&*45)'&&&? &&",
"8&&&.>H6, $&45=3'''K '''",
"8&&&.>H6,$&*5==33<P!<<33",
"8&&'.AL7,$&45==FFR/JFFFE",
"8&&'.GL9,$&55=EFR/JJJJFF",
"8&&&'#!!!$'5==FR/JJNJJJF",
"8$ ?I###! '5=ER/JON NOJF",
"8RRRR0#%#HI <R/JJOR. NJJ",
"8RRRR%#HHLRR-&FJNRAA. JF",
"8QRRRRHLRRRRRB;FJRAA/&2F",
"8MQRRRRRRRRRRR-FJOR/&;<F",
"8DMNQRRRRRRRRRR FFJJ;FF=",
"8<IMMMNQQRRRRRRI2EFFEE=5",};
