/* XPM */
static unsigned char *BooksSideBySide[] = {
"24 24 40 1",
" 	c None",
"!	c #000000",
"#	c #101F10",
"$	c #101F1F",
"%	c #202810",
"&	c #206020",
"'	c #2F902F",
"(	c #30302F",
")	c #30383F",
"*	c #3F3050",
"+	c #3F4000",
",	c #402000",
"-	c #4F574F",
".	c #509F60",
"/	c #5F2810",
"0	c #70404F",
"1	c #707780",
"2	c #7F402F",
"3	c #7F808F",
"4	c #7FA79F",
"5	c #803F30",
"6	c #8F909F",
"7	c #8FA8B0",
"8	c #90786F",
"9	c #9FAFA0",
":	c #A05F5F",
";	c #A09890",
"<	c #A0A7C0",
"=	c #AF2000",
">	c #B03830",
"?	c #C0A84F",
"@	c #C0DF9F",
"A	c #CFA77F",
"B	c #DFAFA0",
"C	c #E0903F",
"D	c #E0EFE0",
"E	c #E0F0CF",
"F	c #E0F7E0",
"G	c #EFEFF0",
"H	c #FFFFFF",
"                        ",
"                        ",
"     %;H!           BH3 ",
"    %;H!!    AHH!   H!H!",
"    ..7%!   F/H9!   GBH0",
"    /,,%!!9;FFF,!   H0!!",
" E6H//,%!!H(FC?/!   G0!!",
"D-H&/,/%!)4(F?A,!!H1B=,,",
"E''!/,,%!)4(A22!!!HH!B00",
"@!!!.<7%!)4(FAA,!+++!B00",
"@!!!.<7%!)4(FCA/!8:8!B00",
"@!!!.<7%!)5(F?A,!333!B00",
"@!!!.<7%!)>(FAA/!333!B00",
"D''!.<7%!)5(FAA,!$8$!B,0",
"E''!.<7%!)4(FA?/!+++!BB0",
"D''!.<7%!)5(FAC,!+++!B00",
"@!!!.<7%!)4(FA?/!+++!B00",
"@!!!.<7%!)5(F?C,!:8:!B00",
"@#!!<<7%!)>(F2+/!8:8!B00",
"@!#!*/,%!)4(F+2,!:8:!0#!",
"E''!.<7%!)4(F++/!8:8!B00",
"    .<7% !!!A?C,!+++!!!!",
"    !!!!                ",
"                        ",};
