/* XPM */
static unsigned char *BriefcaseWithPaperAndSquareWithScrews[] = {
"24 24 59 1",
" 	c None",
"!	c #000000",
"#	c #00000F",
"$	c #000F0F",
"%	c #0F000F",
"&	c #0F0F0F",
"'	c #1F000F",
"(	c #1F0F0F",
")	c #2F2000",
"*	c #2F200F",
"+	c #2F202F",
",	c #2F302F",
"-	c #402000",
".	c #403000",
"/	c #40300F",
"0	c #40302F",
"1	c #403040",
"2	c #50200F",
"3	c #503040",
"4	c #504040",
"5	c #505050",
"6	c #60200F",
"7	c #60300F",
"8	c #60301F",
"9	c #706750",
":	c #80500F",
";	c #805060",
"<	c #806760",
"=	c #807770",
">	c #90501F",
"?	c #90502F",
"@	c #907770",
"A	c #A0401F",
"B	c #A0672F",
"C	c #A06740",
"D	c #A0772F",
"E	c #A0871F",
"F	c #B07740",
"G	c #B0872F",
"H	c #B0971F",
"I	c #B0A8B0",
"J	c #CF671F",
"K	c #CF7740",
"L	c #CF870F",
"M	c #CF8740",
"N	c #CF971F",
"O	c #CF972F",
"P	c #CF9740",
"Q	c #CFA82F",
"R	c #CFA840",
"S	c #DF9740",
"T	c #DFA840",
"U	c #EFD870",
"V	c #EFEF80",
"W	c #EFEF90",
"X	c #FFB840",
"Y	c #FFC840",
"Z	c #FFC860",
"[	c #FFFFFF",
"                        ",
"                        ",
"        [4444444I       ",
"   @44444444444@&4444444",
"  =@44=@4@44444@&@=44@&&",
" [[[[[[[[[[[[[[[[[[[[%+%",
" <<<<<<<<<<<<<<<<<<<<++&",
" <<<[[[[[[[[$<<<<<<<<+,%",
" <<<[!!5[!![$<<<<<<<<+,&",
" <<<[!5[!![[$<<<<<<<<+0%",
" <<<[!5[![![$ZZYXX<<<+0&",
" <<<[5![!![[$OG.D7<<<+0%",
" <<<[!55!!5[$QL:-7<<<+0&",
" <<<[!5[!![[$O-:)7<<<+0%",
" <<<[!5[![![$QOGE7<<<+0&",
" <<<[[[[[[[[$SKFB8<<<+0%",
" <<<$$$$$$$$$PF6B8<<<+1&",
" <<<<<9UPJ>2TMJ>28<<<+3%",
" <<<<;9VP2A*RK2A*2<<<+3&",
" <<<<<9WHPNNNFCB?2<<<+4%",
" <<<<;9777//*'(%#%<<<+4&",
" <<<<<<<<<<<<<<<<<<<<+& ",
" &&&&&&&&&&&&&&&&&&&&&  ",
"                        ",};
