/* XPM */
static unsigned char *CheckMarkMonitor[] = {
"24 24 62 1",
" 	c None",
"!	c #000000",
"#	c #110011",
"$	c #111111",
"%	c #111122",
"&	c #118811",
"'	c #220011",
"(	c #221133",
")	c #222233",
"*	c #331111",
"+	c #332233",
",	c #332244",
"-	c #443344",
".	c #443355",
"/	c #444444",
"0	c #551133",
"1	c #552200",
"2	c #553333",
"3	c #554444",
"4	c #554466",
"5	c #555555",
"6	c #555566",
"7	c #555577",
"8	c #665588",
"9	c #666666",
":	c #666677",
";	c #776666",
"<	c #776677",
"=	c #777777",
">	c #880011",
"?	c #886688",
"@	c #887788",
"A	c #8877AA",
"B	c #888888",
"C	c #998888",
"D	c #998899",
"E	c #999999",
"F	c #9999AA",
"G	c #9999BB",
"H	c #AA88BB",
"I	c #AA99AA",
"J	c #AAAAAA",
"K	c #AAAABB",
"L	c #BB2233",
"M	c #BB9988",
"N	c #BBAAAA",
"O	c #BBAABB",
"P	c #BBBBBB",
"Q	c #BBBBCC",
"R	c #CC4422",
"S	c #CCBBCC",
"T	c #CCBBDD",
"U	c #CCCCCC",
"V	c #DD7733",
"W	c #DDAA77",
"X	c #DDBBBB",
"Y	c #DDBBCC",
"Z	c #DDCCDD",
"[	c #DDDDDD",
"]	c #EEDDEE",
"^	c #EEEEEE",
"_	c #FFFFFF",
"                        ",
" ^^^^^^^^^^^^^^][[_WL!Q4",
" ^^^^^^^^^^^^^][[^XL!=@)",
" ^^!!!!!!!!!!!!!+]L'%=K(",
" ^^!<<?@@DD@@@@<_L>0-JP%",
" ^^!<@DDGIGDDD@SRL'-9PO%",
" ^^!@DDIOOIIHDD]L!-5<PO%",
" ^^!@DIO_M2IID_L'3/<<OJ%",
" ^^!@DI]LLL@HTRL0/8<<JJ%",
" ^^!@DGIWLL*D]L!/9<<<JI%",
" ^^!@@DDYLL>]L1.5<<<<II%",
" ^^!<@ADDVLLLL!.8<<<<IF#",
" ^^!<<@@@ZLLL!.4<<<<<EE$",
" ^^!<<<?@@LLL*.<<<<<<ED#",
" ^]!<<<<<<;!'-4<<<<<<DC#",
" ][!<<<<<<<855<<<<<<<DB#",
" [[J_________________B@!",
" [[ZUUSSPOONJJIIFED4&@@!",
" J<<<<<<<8888887444444.!",
"      :55QI@6-)%,--     ",
"     [@B@@9.--.6@BC+    ",
"    ________________+   ",
"    JJJJJJJJJJJJJJJJ!   ",
"                        ",};
