/* XPM */
static unsigned char *ClipboardWithPencilAndPaper[] = {
"24 24 127 2",
"  	c None",
" !	c #000000",
" #	c #080C08",
" $	c #100400",
" %	c #181410",
" &	c #200C00",
" '	c #202020",
" (	c #202028",
" )	c #202430",
" *	c #280C00",
" +	c #281000",
" ,	c #281C08",
" -	c #282830",
" .	c #282C30",
" /	c #301000",
" 0	c #301400",
" 1	c #301408",
" 2	c #302820",
" 3	c #381400",
" 4	c #382010",
" 5	c #383840",
" 6	c #401C08",
" 7	c #402418",
" 8	c #402C18",
" 9	c #403C28",
" :	c #404040",
" ;	c #404448",
" <	c #482008",
" =	c #482818",
" >	c #484850",
" ?	c #502008",
" @	c #502810",
" A	c #504C50",
" B	c #505858",
" C	c #582408",
" D	c #582810",
" E	c #582C10",
" F	c #585868",
" G	c #585C60",
" H	c #602C10",
" I	c #603818",
" J	c #686460",
" K	c #686868",
" L	c #687070",
" M	c #703410",
" N	c #703818",
" O	c #704028",
" P	c #705C30",
" Q	c #707470",
" R	c #784018",
" S	c #787470",
" T	c #787878",
" U	c #787C78",
" V	c #804420",
" W	c #808080",
" X	c #808480",
" Y	c #808888",
" Z	c #887048",
" [	c #887C78",
" ]	c #888888",
" ^	c #903020",
" _	c #905C38",
" `	c #906438",
" a	c #909090",
" b	c #909490",
" c	c #909498",
" d	c #909898",
" e	c #989898",
" f	c #989C98",
" g	c #989CA0",
" h	c #98A0A0",
" i	c #A07450",
" j	c #A07C50",
" k	c #A0A0A0",
" l	c #A0A4A0",
" m	c #A0A4A8",
" n	c #A8A4A8",
" o	c #A8A8A8",
" p	c #A8ACA8",
" q	c #A8ACB0",
" r	c #B09050",
" s	c #B0B0B0",
" t	c #B0B4B0",
" u	c #B0B4B8",
" v	c #B0B8B8",
" w	c #B8B8B8",
" x	c #B8BCB8",
" y	c #B8BCC0",
" z	c #B8C0C0",
" {	c #C0BCB0",
" |	c #C0C4C0",
" }	c #C0C4C8",
" ~	c #C0C8C8",
"! 	c #C89060",
"!!	c #C8AC58",
"!#	c #C8C8C8",
"!$	c #C8CCC8",
"!%	c #C8CCD0",
"!&	c #D0C0B8",
"!'	c #D0C8A8",
"!(	c #D0D0D0",
"!)	c #D0D0D8",
"!*	c #D0D4D8",
"!+	c #D0D8D8",
"!,	c #D8B888",
"!-	c #D8CC58",
"!.	c #D8D8D8",
"!/	c #D8DCE0",
"!0	c #D8E0E0",
"!1	c #E0B088",
"!2	c #E0D0B8",
"!3	c #E0D468",
"!4	c #E0E0E0",
"!5	c #E0E4E8",
"!6	c #E8D8B0",
"!7	c #E8E8E8",
"!8	c #E8ECE8",
"!9	c #E8F0F0",
"!:	c #F0E460",
"!;	c #F0F0E8",
"!<	c #F0F0F0",
"!=	c #F0F4F8",
"!>	c #F8E8D8",
"!?	c #F8ECE0",
"!@	c #F8F4F0",
"!A	c #F8F8F8",
"!B	c #F8FCF8",
"                       t S             [        ",
"          !$ e       { E ? Q           ^        ",
"           h } > T + 1 Z!. C ]       A (        ",
"           } F F : ) ) G!.!) < f    !- B        ",
"        !2 a 5 ) ) % ~ x w!) z 6     `          ",
"     { R _ ) ) ( b!7!5!0!.!+!% n 3!3 ,          ",
"!8 V V R!& - K!<!9!7!5 |!/!.!* } [!- S          ",
" p!, V!B!B!A!7!<!9!7 a v!$!(!% } { P 2          ",
"  !( ` I!B Y X!<!4!$ p!0 s g!%!#!: % = 9        ",
"    !@ R J!A v!*!4 s ~ e m } m }!! k q 4 G      ",
"      !6 N!#!=   | y a v L b!%!' N v q m 3 U    ",
"       | j H!=!< ] k o ] l } z!: : w s q c / b  ",
"        !8 M 7!< | l w!5 s Q e r t w w p g W + f",
"          !> M ]!9!%!7 v s g!6 8 } y u o g . * ]",
"           t!  H!4!8 e | y!)!: B } } o m ' * ]  ",
"            !4 N <!8 w d!.!) _ } } } q # & ]    ",
"              !? H 2!5!0!.!( J u J 2 ! & ]      ",
"                !1 H b!0!. ] ; f x $ + Q        ",
"                !% O ?!*!.!)!% v $ + U          ",
"                  !; D 0!.!) m & + U            ",
"                    !2 C . X 1 + K              ",
"                     w i ? < 1 Q                ",
"                      !4 @ 3 Q                  ",
"                        !> K                    ",};
