/* XPM */
static unsigned char *ColoredCompactDisc[] = {
"24 24 78 1",
" 	c None",
"!	c #000000",
"#	c #111111",
"$	c #13001C",
"%	c #13221C",
"&	c #134254",
"'	c #1368A1",
"(	c #1395A1",
")	c #333333",
"*	c #392A2A",
"+	c #392A41",
",	c #3B2254",
"-	c #3B421C",
".	c #3B4254",
"/	c #3B6854",
"0	c #3B68A1",
"1	c #3B95A1",
"2	c #3BC7A1",
"3	c #464646",
"4	c #545454",
"5	c #5B4670",
"6	c #615467",
"7	c #7100A1",
"8	c #7122A1",
"9	c #714254",
":	c #7142A1",
";	c #716800",
"<	c #716854",
"=	c #7168A1",
">	c #71951C",
"?	c #719554",
"@	c #7195A1",
"A	c #7195FF",
"B	c #71C7A1",
"C	c #71FFA1",
"D	c #7C6B8C",
"E	c #7F7F7F",
"F	c #878787",
"G	c #887F7F",
"H	c #888070",
"I	c #9B9B9B",
"J	c #9C90A9",
"K	c #A09AC0",
"L	c #A1A1A1",
"M	c #A4A4A4",
"N	c #AAAAAA",
"O	c #AFAFAF",
"P	c #B0AAAA",
"Q	c #B0AAB3",
"R	c #B222A1",
"S	c #B242A1",
"T	c #B242FF",
"U	c #B26800",
"V	c #B2681C",
"W	c #B26854",
"X	c #B268A1",
"Y	c #B268FF",
"Z	c #B2951C",
"[	c #B29554",
"]	c #B295A1",
"^	c #B295FF",
"_	c #B2C754",
"`	c #B2C7A1",
"a	c #B2FFA1",
"b	c #B5B5B5",
"c	c #BBBBBB",
"d	c #BDB5B3",
"e	c #BE80B0",
"f	c #BEA670",
"g	c #BEA6B0",
"h	c #C6C6C6",
"i	c #CBB8C0",
"j	c #FF42A1",
"k	c #FF68A1",
"l	c #FF9554",
"m	c #FF95A1",
"n	c #FFC7FF",
"o	c #FFFFFF",
"         PJOOMb         ",
"       iofZV;>>`gd      ",
"     Lo[[[WVU>[?__I     ",
"    hm[l[[ZV;>>[___]Q   ",
"   hmml[l[[VU>[[___`]N  ",
"  Lmmmml[[[V;??[__``a<  ",
"  ommmmml[[ZU>___`aaaaD ",
" immmmmmml]]]]]_``aaaa@ ",
" nmmmmmmm]NNNNN`aaaaaaaF",
"PkkkmmmmmN]$66=NNaaaCCB3",
"JkkkkkkmN]6    ]N`aBaBC-",
"ijkjkkkkN,     KNNBBBBB/",
"iSkSkSkXN#     KNNBBBBB/",
"KSSS!!R!!,!  !!!N)1!1!2.",
"bSRRooR!N!H 4!!!N!/11!2%",
" eRRoo77SNN^nocNN'(11116",
" !!!ooR!!]9!!!!91!!!!&0N",
"!ooooo8ooTooooo!!ooooo# ",
"!o!8ooRooYoo^AAA!o!1ooP ",
"!o!=oo:ooYoo!!!:!o!1!!  ",
"!o!QooTooY,oooo!!o!1+   ",
"!o! ooTooYY^^!o!!o!6oo  ",
"!o4!ooDooY!!!,o!!oG!oo  ",
"4ooooo oo5ooooo*EooooE  ",};
