/* XPM */
static unsigned char *ColorSpheresPageLetterD[] = {
"24 24 61 1",
" 	c None",
"!	c #242400",
"#	c #242455",
"$	c #2424AA",
"%	c #244855",
"&	c #249155",
"'	c #480000",
"(	c #4800AA",
")	c #482455",
"*	c #484855",
"+	c #4848AA",
",	c #4848FF",
"-	c #486D55",
".	c #486DFF",
"/	c #489155",
"0	c #48B655",
"1	c #48B6FF",
"2	c #48DA55",
"3	c #48FF55",
"4	c #6D00AA",
"5	c #6D2455",
"6	c #6D24AA",
"7	c #6D4855",
"8	c #6D48FF",
"9	c #6D6DFF",
":	c #6DFF55",
";	c #6DFFAA",
"<	c #910000",
"=	c #910055",
">	c #9124AA",
"?	c #914855",
"@	c #9148AA",
"A	c #916DAA",
"B	c #9191FF",
"C	c #91B6AA",
"D	c #91B6FF",
"E	c #91DAFF",
"F	c #91FFAA",
"G	c #B60055",
"H	c #B648AA",
"I	c #B66DAA",
"J	c #B691FF",
"K	c #B6B6AA",
"L	c #B6B6FF",
"M	c #B6DAFF",
"N	c #B6FFAA",
"O	c #B6FFFF",
"P	c #DA0000",
"Q	c #DA0055",
"R	c #DA2455",
"S	c #DA48AA",
"T	c #DA6DAA",
"U	c #DA6DFF",
"V	c #DA91FF",
"W	c #DADAFF",
"X	c #DAFFFF",
"Y	c #FF0000",
"Z	c #FF91FF",
"[	c #FFB6FF",
"]	c #FFDAFF",
"^	c #FFFFFF",
"                        ",
"            &032-       ",
"           &3;FF;       ",
"         **0;FX^F2      ",
"        ***2;FNOF2     1",
"        ***03;FF;0   1EM",
"  ?HTII ***&23:32  1MMMM",
" )HV[ZI ****%&/& 1EMMMMM",
" 7IZ]]V  ***** 1EEMMMMMM",
" 5IV[[U   ***1EMMMMMMMMM",
" *@IUTH    1EEMMMMMMMMMM",
" *)>@>   1EMMMMDL==GGMMM",
"  ***  1EEMMMD44AMMIQPMM",
"      KMMMMMD6(4MMMMGPRX",
"       DMMMMMM64LMMMIPYX",
"        1MMMMM(44MMMMPPX",
"    ,99 CMMMMM844MMMWPYX",
"   *9BW+)1MMMMB44WWWWPPX",
"   *,.,* DMMMMM44LWXTPYX",
"   **$#  !7LMWW44JXWSQXX",
"         <T<WWW64HXHTXXX",
"         '<+WWX44==XXXXX",
"           )MXX44XXXXXXX",
"            DXXXXXXXXXXX",};
