/* XPM */
static unsigned char *Cyclopssmall[] = {
"19 24 68 1",
" 	c #000000",
"!	c #000011",
"#	c #110000",
"$	c #110011",
"%	c #111111",
"&	c #213231",
"'	c #221111",
"(	c #222211",
")	c #222222",
"*	c #226633",
"+	c #226644",
",	c #321E2E",
"-	c #332211",
".	c #332222",
"/	c #333322",
"0	c #333344",
"1	c #337744",
"2	c #337755",
"3	c #395854",
"4	c #3B7777",
"5	c #433146",
"6	c #442222",
"7	c #443322",
"8	c #444444",
"9	c #448855",
":	c #448888",
";	c #505548",
"<	c #544458",
"=	c #554422",
">	c #5C5C5C",
"?	c #5F5F5F",
"@	c #66AA99",
"A	c #6A9450",
"B	c #746A46",
"C	c #74888A",
"D	c #757575",
"E	c #772233",
"F	c #773B3B",
"G	c #77AA72",
"H	c #828282",
"I	c #888888",
"J	c #889999",
"K	c #973232",
"L	c #976432",
"M	c #976464",
"N	c #993344",
"O	c #999999",
"P	c #99BDAC",
"Q	c #AA5539",
"R	c #AA6666",
"S	c #AA8A7F",
"T	c #B79555",
"U	c #BB1111",
"V	c #BF5F2F",
"W	c #BF8E5F",
"X	c #BFBFBF",
"Y	c #CC1111",
"Z	c #CC1122",
"[	c #CC6644",
"]	c #CCDDBB",
"^	c #D9D9D9",
"_	c #DDAA99",
"`	c #EE8867",
"a	c #EEEEDD",
"b	c #FF9966",
"c	c #FFBB77",
"d	c #FFCC99",
"e	c #FFCCAA",
"YYYYZYYYYYYYYZYYZYY",
"Y&*&&00&%&$$%%&*++&",
"U**+*+&) )F$%#%**+*",
"Y*++&% !'S#!#)& &+1",
"Z+12& !!!!!%''!!!++",
"Y+111!!)%''%,%!#!+2",
"U*22&#!';D%___c$%11",
"Y2922 =M'SM=`W`% 22",
"Y9299#6bcHB[ccWF192",
"Y949:%=%E)%%-'M>!G:",
"Y9:9:%,$$'!%%%$'%9G",
"Y::G:-$#$'c''6,$%:G",
"ZGGGC)=WM_dF`_W'3@@",
"Y@JGGG7,c_`'`c(FAPJ",
"YPJPG-F=d_W6ceQ=%AP",
"YP]G%(6LcM[SSBQ7-(;",
"YPP-%/%Qc`R&__N%%'(",
"YP((--F7``bWWTE$7%'",
"Z]'/'(>F=`W[[Q%%67(",
"Y]..(/IF=F=$-#)'T)%",
"Y%)%%7XQM'7$'!'8^%-",
"Y-%-/8a'MK6F(%%)a=/",
"Y--..<]'`[$6$V=<O%'",
"Y='()I5IRWQTBWF5?%7",};
