/* XPM */
static unsigned char *DiskHammer[] = {
"24 24 40 1",
" 	c None",
"!	c #000000",
"#	c #110000",
"$	c #110011",
"%	c #111122",
"&	c #221111",
"'	c #221122",
"(	c #221133",
")	c #222233",
"*	c #332233",
"+	c #332244",
",	c #332255",
"-	c #333355",
".	c #442244",
"/	c #442255",
"0	c #443333",
"1	c #443355",
"2	c #443366",
"3	c #443377",
"4	c #545454",
"5	c #553355",
"6	c #553366",
"7	c #554466",
"8	c #554477",
"9	c #555555",
":	c #664466",
";	c #6B6060",
"<	c #6B606B",
"=	c #775566",
">	c #7F7F7F",
"?	c #8888AA",
"@	c #9988BB",
"A	c #9999AA",
"B	c #AA99BB",
"C	c #AAAAAA",
"D	c #BBAACC",
"E	c #CCBBDD",
"F	c #DDCCDD",
"G	c #DDDDDD",
"H	c #FFFFFF",
"                        ",
" F3288HED@?!9HBBBA+++!  ",
" G6278HD@?:BD!!CHA++++! ",
" F2288H@?@B=5&9!99CH++!4",
" G2278H?@BDEE!0H!CHC*)!4",
" F2288H@BDEEE!9HCH9C9(!4",
" G2278HBDEEEE9HCH9!!C994",
" F2188C(((((((9H9C('9CHC",
" G11/1/,,++++9C9C&&'!9C!",
" F1/,,,,,+++9C99(&('(!!4",
" G/-/!!!!!!9C9!&&&&&&'!4",
" F,,8888889C9!///8/.'&!4",
" G,,788889C9!///888.&'!4",
" F,+88889C9!///88888''!4",
" G++788HC9!///888888'%!4",
" F++8CC9!!///8888888%$!4",
" G++C9H9!///88888888$$!4",
" F+CHC!!///888888888$$!4",
" GCC9!9///8888888888$$!4",
" C9H9!///88888888888$$!4",
" 9C!!///888888888888$$!4",
">C99///8888888888888$#!4",
" !9&&!!!!!!!!!!!!!!!!!44",
"   ;<4444444444444444444",};
