/* XPM */
static unsigned char *DisketteBoxFull[] = {
"24 24 87 1",
" 	c None",
"!	c #00FF00",
"#	c #10FF10",
"$	c #1FEF1F",
"%	c #2F0010",
"&	c #300010",
"'	c #30E030",
"(	c #30FF30",
")	c #3F3830",
"*	c #400F20",
"+	c #4F072F",
",	c #5F0730",
"-	c #5F2020",
".	c #5F5F5F",
"/	c #5FCF5F",
"0	c #600730",
"1	c #60073F",
"2	c #60083F",
"3	c #606760",
"4	c #6F083F",
"5	c #6F274F",
"6	c #6F6F6F",
"7	c #6FBF6F",
"8	c #700840",
"9	c #700F40",
":	c #70274F",
";	c #704840",
"<	c #70FF70",
"=	c #7F1F4F",
">	c #7F787F",
"?	c #80305F",
"@	c #804760",
"A	c #808080",
"B	c #80CF80",
"C	c #8F4060",
"D	c #8F4760",
"E	c #8F4860",
"F	c #8F506F",
"G	c #8F8070",
"H	c #8F8F80",
"I	c #90404F",
"J	c #904F60",
"K	c #90506F",
"L	c #90908F",
"M	c #90D090",
"N	c #9F989F",
"O	c #A0707F",
"P	c #A08F8F",
"Q	c #A0A7A0",
"R	c #A0BFA0",
"S	c #AFAFAF",
"T	c #B090AF",
"U	c #B0B0B0",
"V	c #B0E7B0",
"W	c #BF7F50",
"X	c #BF7FBF",
"Y	c #BFB8BF",
"Z	c #C0A7AF",
"[	c #C0C0C0",
"]	c #CF6FCF",
"^	c #CF9050",
"_	c #CF90CF",
"`	c #CF975F",
"a	c #D087D0",
"b	c #D0985F",
"c	c #D0B7D0",
"d	c #D0D8D0",
"e	c #D0FFD0",
"f	c #DF3730",
"g	c #DF8FDF",
"h	c #E02FE0",
"i	c #E0C7E0",
"j	c #EFD8DF",
"k	c #F01F1F",
"l	c #F0F7F0",
"m	c #FF00FF",
"n	c #FF0700",
"o	c #FF0FFF",
"p	c #FF1FFF",
"q	c #FF2720",
"r	c #FF47FF",
"s	c #FF6060",
"t	c #FF9FFF",
"u	c #FFA09F",
"v	c #FFDFDF",
"w	c #FFDFFF",
"x	c #FFFFFF",
"       .-.              ",
"       dqnnnnkfI;..     ",
"       [lxxxxvusqnnYY   ",
"     Ya]aaillxxxxxxAQ   ",
"     QgpmmmohmXQ_cdUS   ",
"     [lxxxxwtrommTQQH   ",
"   UB$/BMdlxxxxxxSQ66)  ",
"   >V(!!!'$!7BMdlUQ63&  ",
"   Slxxxxe<#!!!7NNN>*&  ",
"   SdxxxxxxxxxlRL666&&  ",
"  .Qdxxxxxxxxxx[L36*&&  ",
"  GQdxxxxxxxxxxNL3.&&&  ",
"  889CZxxxxxxxxNL3*&&&  ",
"  8bbW888=OjxxxQL.&&&&  ",
"  =```8888422=OPL*&&&&  ",
"  8^^^I84425JJEEE&&&&&  ",
"  8I^^4425FFJEEEE&&&&&  ",
"  88002:KFJJEEEED&&&&&  ",
"  422?KFJJEEEEEDD&&&&&  ",
"  2?FFJJEEE?52,00&&&&&  ",
"  %@@?51211110000&&&&%  ",
"     %%+111000000&&&%   ",
"         %%+00000&&%    ",
"              %%0&%     ",};
