/* XPM */
static unsigned char *DisketteBoxEmpty[] = {
"24 24 50 1",
" 	c None",
"!	c #2F0010",
"#	c #300010",
"$	c #3F3830",
"%	c #400F20",
"&	c #403830",
"'	c #4F072F",
"(	c #4F102F",
")	c #505040",
"*	c #5F0730",
"+	c #5F5F5F",
",	c #600730",
"-	c #60073F",
".	c #60083F",
"/	c #6F083F",
"0	c #6F274F",
"1	c #700840",
"2	c #700F40",
"3	c #70274F",
"4	c #7F1F4F",
"5	c #7F7760",
"6	c #7F7F6F",
"7	c #80305F",
"8	c #804760",
"9	c #8F4760",
":	c #8F4860",
";	c #8F506F",
"<	c #8F686F",
"=	c #8F8F80",
">	c #90404F",
"?	c #904F60",
"@	c #90506F",
"A	c #A0707F",
"B	c #BF7F50",
"C	c #BFB89F",
"D	c #C0C0A0",
"E	c #CF9050",
"F	c #CF975F",
"G	c #CFCFAF",
"H	c #D0985F",
"I	c #D0B8AF",
"J	c #D0D0B0",
"K	c #E0D8BF",
"L	c #EFE7C0",
"M	c #EFEFDF",
"N	c #F0F0CF",
"O	c #F0F8DF",
"P	c #FFF8D0",
"Q	c #FFFFE0",
"R	c #FFFFF0",
"                        ",
"                        ",
"                        ",
"                        ",
"      )===              ",
"     &6JRRQ$            ",
"     56DRQQQ    =JJ===  ",
"    &66DMQQQ$   OOOOK!  ",
"    666CGQQQQ++MOOOP%#  ",
"   5666CCQQQQQOOOOPK##  ",
"  &6666CCQQQOOOOOPP%##  ",
"  <6666CCNQOOOOOPPL###  ",
"  1123<CCGOOOOOPPP(###  ",
"  1HHB1114AKOPPPPL####  ",
"  4FFH1111/..4AIN(####  ",
"  1EEF>1//.0??:::#####  ",
"  1>EE1/.0@;?::::#####  ",
"  11,,.3@;??::::9#####  ",
"  /..7@;??:::::99#####  ",
"  .7;;??:::70.*,,#####  ",
"  !8870-.----,,,,####!  ",
"     !!'---,,,,,,###!   ",
"         !!',,,,,##!    ",
"              !!,#!     ",};
