/* XPM */
static unsigned char *FileFolders[] = {
"24 24 29 1",
" 	c None",
"!	c #000000",
"#	c #332222",
"$	c #442222",
"%	c #545454",
"&	c #553333",
"'	c #555555",
"(	c #663333",
")	c #664444",
"*	c #774444",
"+	c #775544",
",	c #7F7F7F",
"-	c #885544",
".	c #885555",
"/	c #886655",
"0	c #996655",
"1	c #AA6655",
"2	c #AA7766",
"3	c #AAAAAA",
"4	c #BAAFBA",
"5	c #BB7766",
"6	c #BB8866",
"7	c #BB8877",
"8	c #CCAAAA",
"9	c #DD9988",
":	c #E2D4D4",
";	c #EECCDD",
"<	c #FFAA88",
"=	c #FFFFFF",
"              ==!       ",
"     ==   ==3676!=      ",
"   66663666666==9==!    ",
" ==56565====9==3767!=   ",
"=2222266663666666==9==! ",
"=000==55656====9==3676!=",
"=..=2222266663666666==9.",
"=**=000==5656565==920..'",
"=))=..=22222<=920000..-!",
"=&)=**=000=92221000..-+!",
"=&&=))=..=52221000..-+*!",
"=$#=&)=**=222100/..-+*),",
"=#*=&&=))=221000..-+**$ ",
"=!7=#$=&)92100/..-+**)! ",
"=!9=$+=&&91000..-+**))! ",
":!==!6=$#100/..-+**))(! ",
"4!==!9=#*000..-+**))(&!,",
" !=;!==!70/..-+**))($!%,",
" !+8!==!90..-+**))$!%%,,",
" !+!!=;!=..-+**))!%%,,33",
" ,%,!+8!=.-+**)!%%,,,33 ",
"    !*!!=-+*)!%,,,,33   ",
"    ,,,!++*!%%,,3333    ",
"       !+!%,,33         ",};
