/* XPM */
static unsigned char *FilingCabinet[] = {
"24 24 73 1",
" 	c None",
"!	c #000000",
"#	c #0F0F00",
"$	c #0F0F0F",
"%	c #0F0F1F",
"&	c #0F201F",
"'	c #1F200F",
"(	c #1F201F",
")	c #1F202F",
"*	c #1F301F",
"+	c #1F302F",
",	c #1F3040",
"-	c #2F201F",
".	c #2F301F",
"/	c #2F302F",
"0	c #2F3040",
"1	c #2F4040",
"2	c #2F4050",
"3	c #40301F",
"4	c #404040",
"5	c #404050",
"6	c #405040",
"7	c #405050",
"8	c #405060",
"9	c #50402F",
":	c #505050",
";	c #505060",
"<	c #505070",
"=	c #506750",
">	c #506760",
"?	c #506770",
"@	c #605040",
"A	c #606740",
"B	c #606750",
"C	c #606760",
"D	c #606770",
"E	c #606780",
"F	c #607760",
"G	c #607770",
"H	c #607780",
"I	c #607790",
"J	c #707780",
"K	c #707790",
"L	c #708770",
"M	c #708790",
"N	c #7087A0",
"O	c #808780",
"P	c #808790",
"Q	c #8087A0",
"R	c #809780",
"S	c #8097A0",
"T	c #8097B0",
"U	c #909760",
"V	c #909790",
"W	c #90A8B0",
"X	c #A09780",
"Y	c #A0A8B0",
"Z	c #A0A8CF",
"[	c #A0B8B0",
"]	c #B0B8CF",
"^	c #CFC8CF",
"_	c #DFC890",
"`	c #DFD8CF",
"a	c #DFD8DF",
"b	c #DFD8EF",
"c	c #DFEFDF",
"d	c #DFEFEF",
"e	c #EFD8A0",
"f	c #EFEFEF",
"g	c #EFFFEF",
"h	c #FFEFDF",
"i	c #FFFFEF",
"j	c #FFFFFF",
"         f^             ",
"       cWSQ[^           ",
"     aSSSQMQPY`         ",
"  cYTSQQNMMMKMQY`       ",
" j=SSQQNMMMKHHH;#       ",
" j((CSNMKKKHI7##-       ",
" i*+++GMMJH7##--_3h     ",
" g++/00/D7##'-_99e'Va7  ",
" f/011151$'-_3Ae'Oa4+)  ",
" f0111555$$.Be(Oa4((+)  ",
" f1155577$$$--a4&&((e)  ",
" f255788;$P$$$:&&@XU)+  ",
" f55788;;#!8/$>((((+1+  ",
" d5888;;<#)!$C>)+0025+  ",
" b8;;;???#!5+!>)+0155)  ",
" b;;<????15!)0C+0120%   ",
" a;<???DEZ5+$!C011&     ",
" a<???EHH[++01D0%/      ",
" ]?D?EHHHZ+012$%&       ",
"  (HEHHII[002258(F      ",
"   ,1HIKKZ01257(*:R     ",
"     *HKK[025&.6LR      ",
"      ,5NZ1($4FO        ",
"        (0$6CO          ",};
