/* XPM */
static unsigned char *ForwardBackwardPagesBook[] = {
"24 24 92 1",
" 	c None",
"!	c #0F0F0F",
"#	c #0F0F1F",
"$	c #0F0F2F",
"%	c #0F202F",
"&	c #1F0F1F",
"'	c #1F0F2F",
"(	c #1F200F",
")	c #1F201F",
"*	c #1F202F",
"+	c #1F2040",
",	c #1F301F",
"-	c #1F302F",
".	c #2F201F",
"/	c #2F302F",
"0	c #2F402F",
"1	c #40402F",
"2	c #404040",
"3	c #405090",
"4	c #500F00",
"5	c #504050",
"6	c #504090",
"7	c #505050",
"8	c #505060",
"9	c #506750",
":	c #600000",
";	c #60000F",
"<	c #600F00",
"=	c #600F0F",
">	c #60302F",
"?	c #605050",
"@	c #605060",
"A	c #606750",
"B	c #606760",
"C	c #607760",
"D	c #70302F",
"E	c #704050",
"F	c #705040",
"G	c #705050",
"H	c #705060",
"I	c #706760",
"J	c #707760",
"K	c #707770",
"L	c #708770",
"M	c #807770",
"N	c #807780",
"O	c #808770",
"P	c #808780",
"Q	c #809780",
"R	c #809790",
"S	c #907770",
"T	c #907780",
"U	c #908780",
"V	c #909780",
"W	c #909790",
"X	c #9097A0",
"Y	c #90A890",
"Z	c #90A8A0",
"[	c #A08780",
"]	c #A09790",
"^	c #A097A0",
"_	c #A0A890",
"`	c #A0A8A0",
"a	c #A0A8B0",
"b	c #B09790",
"c	c #B0A8A0",
"d	c #B0B8A0",
"e	c #B0B8B0",
"f	c #B0C8B0",
"g	c #CFA8A0",
"h	c #CFB8A0",
"i	c #CFB8B0",
"j	c #CFB8CF",
"k	c #CFC8B0",
"l	c #CFC8CF",
"m	c #CFC8DF",
"n	c #CFD8CF",
"o	c #DFC8B0",
"p	c #DFC8CF",
"q	c #DFD8DF",
"r	c #EFC8CF",
"s	c #EFD8DF",
"t	c #EFD8EF",
"u	c #EFEFDF",
"v	c #EFEFEF",
"w	c #EFEFFF",
"x	c #EFFFEF",
"y	c #EFFFFF",
"z	c #FFEFEF",
"{	c #FFEFFF",
"|	c #FFFFEF",
"}	c #FFFFFF",
"                        ",
"                        ",
"                        ",
"  1A                ?2  ",
"  ?__VVUNMP   CPPVavzU  ",
" W?_osvvvvhK9]vv{{}}|P5 ",
"3k?VPhvv|vhM)cvww}nPqP7*",
"3q?Jjsv}XQYO/vP`y}}yYP7#",
"3q?Vh_`[Z=gM/vqlURevqP7#",
"3q?_Vp<[D4VO2vFiEUf`|U7#",
"6q?Vs4ED;;HHHGGGbETYpP5#",
"6q?p<D=:;;;;:<<<SEEMWU7#",
"6q?]z4I=;;DDDD>DSEHtuP5#",
"6q?_Pq:bD;UO1vFbEMjWzU7#",
"3q@UVis[v=PO1vclM}q`lP7#",
"3q?crpq}WY_O1v^avqvyzP7#",
"3q?drsvvvvhO2cvvw}}xvP7#",
"3qeP]ieelmhO0cslleQL7Y7#",
"3qzeN7/))&0J/7()))08O_7#",
"6B*))-/),/)/!.))-/-/-))!",
"6'$%%%%$$'''%%%%%$'''$%+",
"                        ",
"                        ",
"                        ",};
