/* XPM */
static unsigned char *Gambitsmall[] = {
"19 24 81 1",
" 	c #000000",
"!	c #000011",
"#	c #110000",
"$	c #110011",
"%	c #111111",
"&	c #111122",
"'	c #111144",
"(	c #213231",
")	c #221111",
"*	c #221122",
"+	c #221144",
",	c #222211",
"-	c #222222",
".	c #222233",
"/	c #222244",
"0	c #222255",
"1	c #223366",
"2	c #2B2B2B",
"3	c #321E2E",
"4	c #323297",
"5	c #326497",
"6	c #333333",
"7	c #333344",
"8	c #334411",
"9	c #383840",
":	c #394435",
";	c #395854",
"<	c #3B3B77",
"=	c #3B7777",
">	c #3F445E",
"?	c #44573B",
"@	c #4E3684",
"A	c #4E5A79",
"B	c #55555D",
"C	c #5F8EBF",
"D	c #616561",
"E	c #646497",
"F	c #6644AA",
"G	c #666622",
"H	c #6677BB",
"I	c #692244",
"J	c #6B769A",
"K	c #773B3B",
"L	c #77773B",
"M	c #777788",
"N	c #7C9366",
"O	c #828282",
"P	c #889999",
"Q	c #8899BB",
"R	c #8B99B5",
"S	c #904430",
"T	c #90596E",
"U	c #907C99",
"V	c #93AECC",
"W	c #976432",
"X	c #99BF72",
"Y	c #9E773E",
"Z	c #9E9999",
"[	c #A8A8A8",
"]	c #AA1122",
"^	c #AAAAAA",
"_	c #AACCCC",
"`	c #AF8874",
"a	c #B72828",
"b	c #BAA0A7",
"c	c #BB1111",
"d	c #BF2F2F",
"e	c #BF5F2F",
"f	c #BF5F5F",
"g	c #BF8E5F",
"h	c #C4C4C4",
"i	c #CC1111",
"j	c #CC1122",
"k	c #CC2222",
"l	c #D15538",
"m	c #DD5566",
"n	c #DDCC77",
"o	c #E2E8C9",
"p	c #E3BBA3",
"q	c #EE887C",
"r	c #FF9999",
"jjjiijikkjijiijcjk]",
"j'0-%##$%)$$ $$#%$ ",
"j+0&$# )!$!$ !%% ! ",
"j+'!%$     $ % %   ",
"j0'&'%$!  !   %  !!",
"i'&1%%&) # $  !    ",
"i'&'1A%%!        !$",
"c+011(<?%!!!! !3I#$",
"i%007<<J#U?@Npp).%$",
"i%0/5J=C&%[-3Fn%(-$",
"i%0/5JAo)%&6OX$1<%$",
"j/00AHQP%/%rb,&,TW#",
"j+10AERR_?aqqp`W6,$",
"kbh1.5CV^[,glpql%$$",
"kpMh<5NnZ_GSI9ll%$%",
"jpMN:.D;gVZ&fgYS%*3",
"c+00-:4LnN;lllY$%SS",
"k/011;5>LAP)%dm8)8S",
"i/0011<5B, %mqYGWWK",
"i'+01111,%!$SeIWG2S",
"j//011(%)) $)GLGGSG",
"k+000%%)$) &%KKI8 8",
"j+0//$,,),)$)SS8)G#",
"j.+.$%))%%)%8),$)%8",};
