/* XPM */
static unsigned char *GoldenSatelliteDish[] = {
"24 24 81 1",
" 	c None",
"!	c #20200F",
"#	c #2F200F",
"$	c #2F2010",
"%	c #2F201F",
"&	c #30281F",
"'	c #302F10",
"(	c #3F3010",
")	c #40371F",
"*	c #4F381F",
"+	c #4F3F1F",
",	c #503F20",
"-	c #504020",
".	c #505720",
"/	c #5F4720",
"0	c #5F4820",
"1	c #5F5820",
"2	c #604F1F",
"3	c #60602F",
"4	c #6F502F",
"5	c #6F572F",
"6	c #70582F",
"7	c #70602F",
"8	c #7F602F",
"9	c #7F672F",
":	c #806830",
";	c #806F3F",
"<	c #808030",
"=	c #8F6830",
">	c #8F6F30",
"?	c #8F6F3F",
"@	c #8F7740",
"A	c #907030",
"B	c #907730",
"C	c #9F7830",
"D	c #9F7840",
"E	c #9F7F30",
"F	c #A0803F",
"G	c #A08740",
"H	c #AF8840",
"I	c #AF8F3F",
"J	c #AF903F",
"K	c #B08F3F",
"L	c #BF903F",
"M	c #BF9740",
"N	c #BF9840",
"O	c #BFA840",
"P	c #C0973F",
"Q	c #C09F40",
"R	c #C09F50",
"S	c #C0A050",
"T	c #C0AF40",
"U	c #CFAF60",
"V	c #CFB74F",
"W	c #CFB84F",
"X	c #D0A740",
"Y	c #DFA840",
"Z	c #DFB040",
"[	c #DFC850",
"]	c #DFD87F",
"^	c #E0B04F",
"_	c #E0B74F",
"`	c #E0D050",
"a	c #EFB84F",
"b	c #EFD05F",
"c	c #EFD86F",
"d	c #EFE080",
"e	c #F0C04F",
"f	c #F0C84F",
"g	c #F0CF50",
"h	c #F0DF5F",
"i	c #F0E05F",
"j	c #FFD050",
"k	c #FFD750",
"l	c #FFDF60",
"m	c #FFE05F",
"n	c #FFE75F",
"o	c #FFEF5F",
"p	c #FFF060",
"q	c #FFFF6F",
"r	c #FFFF8F",
"       +#               ",
"      +/08+             ",
"      +C6>E+            ",
"      >T>EFL            ",
"      =VCFMQQ           ",
"      =EJippoO<....2.   ",
"      6A]6QYZ_((1bqr_   ",
"      -ARI7Y^ee  mXQ&   ",
"      ->DdQ>^efO6=46    ",
"      -8=UQY8lQj( 3(    ",
"      '2=GgcQ8egW n     ",
"       -68=Z^aA=`37     ",
"       4&=7Q^aeeJh      ",
"     -P*6=96Yaefj[      ",
"    4S@8FL869_aeO62     ",
"    RR?&DPI65CEFjkC     ",
"    HG;:@!PG64GO6=h     ",
"    RN?62--PK40K=ej2    ",
"    9FC2--,%%IA4Xef2    ",
"    7HE2-,)%$ %%,Ca2    ",
"    5FE2,,,/-,$   %     ",
"    4CC4,,5642--'       ",
"    4CCA2,455542--      ",
"    2ABA=*(2444442      ",};
