/* XPM */
static unsigned char *HeroSandwichdir[] = {
"24 24 136 2",
"  	c None",
" !	c #000000",
" #	c #090000",
" $	c #0C0C01",
" %	c #0D0100",
" &	c #130300",
" '	c #150601",
" (	c #150902",
" )	c #150904",
" *	c #190A05",
" +	c #1A0A02",
" ,	c #1D0C03",
" -	c #23130A",
" .	c #240E05",
" /	c #25160C",
" 0	c #261A0C",
" 1	c #291906",
" 2	c #2A0300",
" 3	c #2A0E08",
" 4	c #2A1204",
" 5	c #2A150C",
" 6	c #2B1510",
" 7	c #2C200F",
" 8	c #2D1109",
" 9	c #2D1A0C",
" :	c #2D1C11",
" ;	c #310C03",
" <	c #311D0E",
" =	c #32331B",
" >	c #331406",
" ?	c #331D12",
" @	c #34160A",
" A	c #34210F",
" B	c #362312",
" C	c #3A1E0D",
" D	c #3A220C",
" E	c #3B1B0C",
" F	c #3C1C12",
" G	c #3C2413",
" H	c #3C261C",
" I	c #3D110D",
" J	c #3E1A04",
" K	c #3E2813",
" L	c #431B0B",
" M	c #43220D",
" N	c #432213",
" O	c #432B1A",
" P	c #470D03",
" Q	c #47150A",
" R	c #481D03",
" S	c #491C0B",
" T	c #4A220D",
" U	c #4A2E20",
" V	c #4A311F",
" W	c #4B1B11",
" X	c #4C2604",
" Y	c #4C2A15",
" Z	c #4C3421",
" [	c #4D4723",
" ]	c #4F3A15",
" ^	c #50271C",
" _	c #522613",
" `	c #522B1C",
" a	c #53190C",
" b	c #55160A",
" c	c #573A26",
" d	c #59340F",
" e	c #5B2E19",
" f	c #5B3414",
" g	c #5C2D0D",
" h	c #5C3522",
" i	c #5E3D25",
" j	c #5E4032",
" k	c #5F4729",
" l	c #62311C",
" m	c #663D2D",
" n	c #683C22",
" o	c #6C341B",
" p	c #6C4428",
" q	c #6D3421",
" r	c #6D4224",
" s	c #712614",
" t	c #713104",
" u	c #714735",
" v	c #774D30",
" w	c #775338",
" x	c #785A46",
" y	c #793824",
" z	c #7B4323",
" {	c #7C5545",
" |	c #82513B",
" }	c #844A38",
" ~	c #895E46",
"! 	c #8C644B",
"!!	c #906B4A",
"!#	c #93542F",
"!$	c #935C47",
"!%	c #93634B",
"!&	c #97593B",
"!'	c #985A3E",
"!(	c #9B6342",
"!)	c #9E654F",
"!*	c #A05735",
"!+	c #A05A39",
"!,	c #A36C54",
"!-	c #A37C5E",
"!.	c #A47A6B",
"!/	c #A56D5B",
"!0	c #A66D4F",
"!1	c #A67759",
"!2	c #A97159",
"!3	c #AA6D53",
"!4	c #B16154",
"!5	c #B2806C",
"!6	c #B28A74",
"!7	c #B94704",
"!8	c #B94808",
"!9	c #BA7051",
"!:	c #BB5327",
"!;	c #BD785B",
"!<	c #BE9378",
"!=	c #C9714C",
"!>	c #CB5418",
"!?	c #CD5C1E",
"!@	c #D27348",
"!A	c #D5571A",
"!B	c #D5631A",
"!C	c #DE9765",
"!D	c #E98E5B",
"!E	c #EC8150",
"!F	c #EDC5A2",
"!G	c #EE834B",
"!H	c #F07F4D",
"!I	c #FFC22C",
"!J	c #FFD291",
"!K	c #FFF0B0",
"                                                ",
"                                                ",
"                                                ",
"                                                ",
"                                                ",
"      !@!8!7!?!>!B!G!>!A!>!H!E!D!C!<!<          ",
"     Z |!%!$!)!/!2!3!0!3!,!'!&!;!;!9!=!:!4      ",
"     = j i w! !  ~ p x {!.!6!<!6!!!-!5!1!( t    ",
"     P I O!I!I!I!I!K f Q S J z R g f d X T 4    ",
"   ; P L a &!I!I ] ! E _ b W }!F!I!I!J ? - + H  ",
"  !* l e % y q ! $ 7 K + * ? 5 %!I [ ; s E 1 3  ",
"   @ ` h U ? ' h . / u O , F 5 ? G ^ 4 E g o Y  ",
"   # + , ) , 8 N v m 4 @ T M > C D A N Y n!#!+  ",
"   ( 0 0 / / 6 9 : < 9 < B B K O V Z Z c k r!(  ",
"   ! ! ! ! ! ! ! ! ! ! ! ! ! ! ! ! ! & ( + 4 2  ",
"                                                ",
"                                                ",
"                                                ",
"                                                ",
"                                                ",
"                                                ",
"                                                ",
"                                                ",
"                                                ",};
