/* XPM */
static unsigned char *IntelInsideMonitor[] = {
"24 24 56 1",
" 	c None",
"!	c #000000",
"#	c #0000FF",
"$	c #0004CF",
"%	c #00F600",
"&	c #080810",
"'	c #0808E7",
"(	c #1820C7",
")	c #2010CF",
"*	c #202028",
"+	c #2020CF",
",	c #2020DF",
"-	c #282041",
".	c #28288E",
"/	c #3024BE",
"0	c #302CAE",
"1	c #4130BE",
"2	c #414151",
"3	c #4141BE",
"4	c #494186",
"5	c #49499E",
"6	c #4949BE",
"7	c #515161",
"8	c #515171",
"9	c #51559E",
":	c #596561",
";	c #614969",
"<	c #615171",
"=	c #615179",
">	c #61518E",
"?	c #616171",
"@	c #61618E",
"A	c #61619E",
"B	c #6161AE",
"C	c #69718E",
"D	c #697971",
"E	c #71619E",
"F	c #71A286",
"G	c #7961A6",
"H	c #797196",
"I	c #797DAE",
"J	c #86799E",
"K	c #8686D7",
"L	c #9E9A9E",
"M	c #A69AAE",
"N	c #AEAAAE",
"O	c #B6AEAE",
"P	c #B6C3BE",
"Q	c #BEBABE",
"R	c #C7C3CF",
"S	c #C7D3CF",
"T	c #CFCFE7",
"U	c #D7E3DF",
"V	c #DFDFE7",
"W	c #EFEBEF",
"X	c #FFFBFF",
" NNNNNNNNNNNNNNNNNNNNNN ",
"NWWWWWWWWWWWWWWVVUUTSSTL",
"NWWWWWWWWWWK,#####TSSSR*",
"NWW!!!!!&###.---..!!!RP*",
"NWW!88:$#/@@44@(+::88QQ&",
"NWW!8>#)>9/9A1@.)#)88QO&",
"NWW!>'0@A#($33AA9>$.8QO&",
"NWW!40,,(G3'G3EEE9>#8ON&",
"NWW!$A$,533#BBG3E#9):NN&",
"NWW!'A,,J66KKIJ#3(A):NM&",
"NWW!)E,JJ66K#63J3(9#DMM&",
"NWW!#AEGJ/##6A3'3EA0:MM&",
"NWW!.4AEG,,#+BGEEA#>DLL&",
"NWW!>$=AE,49EEEA9$>>:LL&",
"NWV!8>$$0AAAAA0#0>>88LF&",
"NVV!8:DD+####$.DD:888LJ&",
"NUUNXXXXXXXXXXXXXXXXXJH&",
"NUUTSSRRQOOONNMMMLL4%HH&",
"NNCCCCCC=<<<<<<84444442!",
"     N?22PMH7-*&---     ",
"    NUHJHH;2--27HJF!    ",
"   NXXXXXXXXXXXXXXXX*   ",
"   NNNNNNNNNNNNNNNNN!   ",
"                        ",};
