/* XPM */
static unsigned char *LeatherFullBag[] = {
"24 24 49 1",
" 	c None",
"!	c #202720",
"#	c #2F2820",
"$	c #2F2F2F",
"%	c #303030",
"&	c #3F3730",
"'	c #4F3830",
"(	c #503830",
")	c #503F30",
"*	c #60382F",
"+	c #603F2F",
",	c #6F3F30",
"-	c #703F2F",
".	c #7F3F2F",
"/	c #7F402F",
"0	c #804730",
"1	c #8F4F30",
"2	c #8F772F",
"3	c #904F30",
"4	c #90583F",
"5	c #90807F",
"6	c #9F5840",
"7	c #9F6040",
"8	c #A06040",
"9	c #A08F8F",
":	c #AF674F",
";	c #AF6F4F",
"<	c #AF9F90",
"=	c #B0704F",
">	c #B07750",
"?	c #BF775F",
"@	c #BF7F5F",
"A	c #C08060",
"B	c #C0886F",
"C	c #C0B0AF",
"D	c #CF9070",
"E	c #D09770",
"F	c #D09F7F",
"G	c #DFA78F",
"H	c #DFC8C0",
"I	c #EFB090",
"J	c #EFE8EF",
"K	c #F0BFA0",
"L	c #F0E0D0",
"M	c #FFC8B0",
"N	c #FFE0CF",
"O	c #FFF0EF",
"P	c #FFFFF0",
"Q	c #FFFFFF",
"                        ",
"                        ",
"                        ",
"                        ",
"          LL  QL        ",
"      O  JJCCLCQQL3:    ",
"     QQQO5CQHQQHLQHB    ",
"    JQQQ<QCH9HHCC3:3:B  ",
"   9PQQ<LQ0/0:21B143=:  ",
"  !9J0=2G343::2.I,/4:=F ",
" ?!&&(>=0&#$1:%&I::EMNK ",
" 61'!%#'')()/3;=:=IEEDF ",
" 3/-&,,----.-1:?EEA?B=A ",
" 0-)'/33033=@?===A:@37? ",
" 0-('0=???A=:003333>34: ",
" /+'&'043@0-./00000@043 ",
" ++(&'()+8+-+-/00000:34 ",
" */('&'((3*,,)*))/+=104 ",
" '''%*((--1''''((+.:.,. ",
"  !%$.&'.3-'''''''!7    ",
"   $&0+&'@%%'%%         ",
"    %3+'%4              ",
"     ,                  ",
"                        ",};
