/* XPM */
static unsigned char *MaelstromInFrame[] = {
"24 24 89 1",
" 	c #000F0F",
"!	c #0F000F",
"#	c #0F0F00",
"$	c #0F0F0F",
"%	c #0F0F1F",
"&	c #0F200F",
"'	c #0F201F",
"(	c #1F0F0F",
")	c #1F0F1F",
"*	c #1F200F",
"+	c #1F201F",
",	c #1F202F",
"-	c #1F2040",
".	c #1F301F",
"/	c #1F302F",
"0	c #1F3040",
"1	c #2F0F1F",
"2	c #2F201F",
"3	c #2F202F",
"4	c #2F2040",
"5	c #2F301F",
"6	c #2F302F",
"7	c #2F3040",
"8	c #2F3050",
"9	c #2F402F",
":	c #2F4040",
";	c #2F4050",
"<	c #2F4060",
"=	c #2F5070",
">	c #2F6750",
"?	c #40302F",
"@	c #403040",
"A	c #403050",
"B	c #40402F",
"C	c #404040",
"D	c #404050",
"E	c #404060",
"F	c #405040",
"G	c #405050",
"H	c #405060",
"I	c #50302F",
"J	c #503040",
"K	c #50402F",
"L	c #504040",
"M	c #504050",
"N	c #505040",
"O	c #505050",
"P	c #505060",
"Q	c #505070",
"R	c #506750",
"S	c #506760",
"T	c #506770",
"U	c #605060",
"V	c #605070",
"W	c #606750",
"X	c #606760",
"Y	c #606770",
"Z	c #607760",
"[	c #607770",
"]	c #607780",
"^	c #608780",
"_	c #706770",
"`	c #706780",
"a	c #707770",
"b	c #707780",
"c	c #708760",
"d	c #708770",
"e	c #708780",
"f	c #708790",
"g	c #807760",
"h	c #807770",
"i	c #807780",
"j	c #808760",
"k	c #808770",
"l	c #808780",
"m	c #808790",
"n	c #809770",
"o	c #809780",
"p	c #809790",
"q	c #909780",
"r	c #909790",
"s	c #9097A0",
"t	c #90A890",
"u	c #90A8A0",
"v	c #B0A880",
"w	c #B0B880",
"x	c #B0B890",
"y	c #CFB890",
"z	c #FFFFFF",
"zzzzzzzzzzzzzzzzzzzzzzzz",
"zuuuusurrtppppmmmmlllelY",
"zuuussrspppppmmmmllllliX",
"zuuOMMMMMMMMMMMMMMMMMieY",
"zusO!$$$$$$/?i::LC/3,eiP",
"zssO2$$%+*6MD;+6eS3J+ebP",
"ztrO)$('5Bh62:+223VA2ibU",
"zrrO/'++YZMDF+6.)+0,'ebP",
"zrpO,+:6ECCXCGCB3)%++ebP",
"zppO;2@O9MDglqL@G22$1baP",
"zppO0'9YB:qxxokNY:+,$[bM",
"zppO;+$NCMqywngUU3,$$][D",
"zmmO;+4QPLcvjWKkX7,$$b[M",
"zmmOE%:,;8?CBKal;//)$[`D",
"zmmOW)$28,+36IX:/)$$$YYD",
"zmlO76+$+++67ql+*($$!YYD",
"zllO)0>ZD;@DoH<+%$&%$YYC",
"zllO$,6HY/d]C56%$$)$$YXC",
"zllO$,37D^SH8&6)&+$$!VXC",
"zllO)$'-/of:')/'$ $$ SY:",
"zleO%%%O=R74)$$!$$$#$TS:",
"zeeibbiabb[a_[Y_YYVXXVS7",
"zlbebb]b[[b[[Y[YYTSYSSQ:",
"zXXYUPUPOPMMDDDDCC@C:77,",};
