/* XPM */
static unsigned char *Magnify[] = {
"42 42 56 1",
" 	c #000000",
"!	c #080808",
"#	c #080810",
"$	c #101010",
"%	c #101018",
"&	c #181818",
"'	c #212929",
"(	c #291818",
")	c #292131",
"*	c #292929",
"+	c #313131",
",	c #393131",
"-	c #394A42",
".	c #424242",
"/	c #42424A",
"0	c #4A424A",
"1	c #4A4A4A",
"2	c #523121",
"3	c #525252",
"4	c #52525A",
"5	c #525A52",
"6	c #525A5A",
"7	c #5A4231",
"8	c #5A5A5A",
"9	c #5A5A6B",
":	c #635A63",
";	c #636363",
"<	c #63636B",
"=	c #6B6B6B",
">	c #6B6B73",
"?	c #6B736B",
"@	c #734231",
"A	c #736B6B",
"B	c #736B7B",
"C	c #737373",
"D	c #7B7B73",
"E	c #7B7B7B",
"F	c #7B847B",
"G	c #847B84",
"H	c #848484",
"I	c #84848C",
"J	c #8C8C8C",
"K	c #949494",
"L	c #A5A5A5",
"M	c #ADADAD",
"N	c #B5B5B5",
"O	c #B5B5BD",
"P	c #BDBDBD",
"Q	c #C6BDBD",
"R	c #C6C6C6",
"S	c #CE7352",
"T	c #CECECE",
"U	c #D6D6D6",
"V	c #E7E7E7",
"W	c #EFEFEF",
"X	c #FFFFFF",
"XXXXXXXXXXXXXXXXXXXXXXXXXXXXXXXXXXXXXXXXX ",
"XMMMMMMMMMMMMMMMMMMMMMMMMMMMMMMMMMMMMMMM3 ",
"XMEHHHHHJHJJJJJKJKKKKKKKKKKKLKLLLLLLMLMM3 ",
"XMHHHHJJJJJJJKKKKKKKKKKLKLLLLLLLLLMLMMMM3 ",
"XMHHHJHJJJJJKJKKKKKKKKLKLLKLKLLLLLLMMMMN3 ",
"XMHHJJJJJJKKORTTTTTPMLKKLKLLLLLLLMMMMMMM3 ",
"XMHJHJJJJJPRL:)$%$);MPLLKLLLLLLMMLMMMMMN3 ",
"XMHJJJJJKPR4$&.6:3-&$1RLLLLLLLLLMMMMMMNM3 ",
"XMJJJJJJRO,!3>BIKLKJ1!)OLLLLLLMMMMMMNMNN3 ",
"XLJJJJJPR,#G<LRRPPPPRK!*OLLLLMLMMMMNMMNN8 ",
"XMJJJJLR4#G9UWWVRKKKKLO!,NLLMMMMMMMMNNNN3 ",
"XMJJJKOM$39OWWVUJHHGHHM<$9MMLMMMMNNNNNNN3 ",
"XMJJKJR:&>JUVVUGCCC?CCBP&,JMMMMMMMMMNNNP3 ",
"XMJKKKT*->MUVUN=======?L.'BLMMMMNNNNNNNN6 ",
"XMJKJKT#3BJVUVJ=CEEHHHEL<$9LMMNMNMNNNNPP3 ",
"XMJKKKT$4BCUVUNEHKKKLKKMJ!4MMMMNNNNNNPNP3 ",
"XMKKKJU#.CCUUVUJLMNPPPNRE$4KMMNNNNNPNPPP4 ",
"XLKKKKR*+<=RUVWRNPRRRRRT1'4LMNNNNNNNPPPP5 ",
"XMKKKKO4&<=KWWWWUTTTTTUU&,9KMNNNNNPPPPPP3 ",
"XMKKKKKM#,EEUWWUTTTTTUTB$/<LMNNNNPNPPPPR3 ",
"XMKKKKJM1!BJNUTTTTTTTUT#+4EKMNNNNPPPPPPR3 ",
"XMKKLKKHO*!NRRTTTTTUUT! 49JLNNNPPPPPPPPR3 ",
"XMKKKKKIFM*!>UTTTUUTB! +99KLNNPNPPPPPRRP3 ",
"XMKLLLKKGEM+$&4HLG4'$-0 PI9MNPNPPPPPRPRR3 ",
"XMKKKKLKKEGK<-*$##*.44<4 R4@NPPPPPPRPRRR3 ",
"XMKLLLLLKJFGHIC94449>BEB 92X@NPPPPRPRRRR3 ",
"XMLKLKLLLKKHEHHJKKJHFEECC 7SX@PPPRPRRRRR3 ",
"XMKLLLLLLLKKJEEEEEGFGHJECC 7SX@PRPRRRRRT3 ",
"XMLLKLLLLMMLKKJJHHHJKKKKHEC 7SX@PRRRRRRT3 ",
"XMKLLLLLLMLLMMLKLKLLLNNMLHED 2SX@PRRRRTT3 ",
"XMLLLLLMMLMMMMMMMMNMNNNNMKHED 7SX@RRTTRT3 ",
"XLLLLLLLMMMMMMNMNNNNNPPNPNLHEE 2SS!RRTTT3 ",
"XMLLLLMMMMMMMNMNNNNNPNPPPNNLJEE 7!(RRTTT3 ",
"XMLLMMLMMMMNNMNNNNNPPPPPPPPNLJHE (AQRTTT8 ",
"XMLMLMMMMMNMMNNNNNPPNPPPPRPPNLJHEJKPRTTU3 ",
"XMLMLMMMMMNNNNNNNPNPPPPPRPRRPPMJHJKPTTTU3 ",
"XMLMMMMMMNMNNNNPNPPPPPPRPRRRRRNNKKNRTUTU4 ",
"XLMMMMMMNMNNNNNNPPPPPPRPRRRRRRRPPPRTTTUU3 ",
"XMMMMMNMNNNNNNPPPPPPPRPRRRRRRRTRTRTTTUUU3 ",
"XMMMMMNNNNNNNPNPPPPPRPRRRRRRTRTTTTTUUUUU3 ",
"X3333333333333333333333333333333333333336 ",
"                                          ",};
