/* XPM */
static unsigned char *MicroPhonePro[] = {
"24 24 50 1",
" 	c None",
"!	c #000000",
"#	c #000033",
"$	c #110033",
"%	c #111133",
"&	c #111144",
"'	c #221144",
"(	c #222244",
")	c #222255",
"*	c #222266",
"+	c #223366",
",	c #332255",
"-	c #333355",
".	c #333366",
"/	c #334466",
"0	c #334477",
"1	c #335577",
"2	c #336677",
"3	c #382A54",
"4	c #443366",
"5	c #444466",
"6	c #444488",
"7	c #545476",
"8	c #554477",
"9	c #555577",
":	c #555588",
";	c #665577",
"<	c #665588",
"=	c #666688",
">	c #666699",
"?	c #776688",
"@	c #777799",
"A	c #887799",
"B	c #9988BB",
"C	c #AA99BB",
"D	c #AAAACC",
"E	c #BAAFBA",
"F	c #BBAACC",
"G	c #BBBBDD",
"H	c #C6B8D4",
"I	c #CCBBDD",
"J	c #CCBBEE",
"K	c #CCCCDD",
"L	c #CCCCEE",
"M	c #DDCCEE",
"N	c #DDDDFF",
"O	c #EEDDFF",
"P	c #EEEEFF",
"Q	c #FFEEFF",
"R	c #FFFFFF",
"                        ",
"          HMG;#         ",
"          GG<8'3        ",
"  !1212121=G=<##212121  ",
"  !2121212<G<=##121212  ",
"  !1212121=G=<##212121  ",
"  !2121212<G<=##121212  ",
"  !12121#1=G=<##=12121  ",
"  !21212##<G<=###21212  ",
"  !11111#1QD='##=11111  ",
"  !11111#1QG<-##<11111  ",
"  !11111#1PI=-##=11111  ",
"  !11111#1OG<-##A11111  ",
"  !11111#1JF9,#)B11111  ",
"  !10101(169(&#1G10101  ",
"  !00000L+000000-00000  ",
"  !00000><0000B5+00)##  ",
"  !000000>5AG?$*00&000  ",
"  !0/0/0/0/0C0/0/0)0/0  ",
"  !.0.0.0.0:B.0.0.0.0.  ",
"  !.4.4.4.KN@####)4/4/  ",
"  RRRRRRRQND9(##RRRRRR  ",
"         EL@9-%7        ",
"                        ",};
