/* XPM */
static unsigned char *ModeledHeadInClouds[] = {
"24 24 69 1",
" 	c #000000",
"!	c #005465",
"#	c #006587",
"$	c #0098A9",
"%	c #0098BA",
"&	c #00A9BA",
"'	c #00A9CB",
"(	c #00DCFE",
")	c #100010",
"*	c #101010",
"+	c #210021",
",	c #211010",
"-	c #211021",
".	c #212121",
"/	c #322121",
"0	c #322132",
"1	c #323232",
"2	c #433243",
"3	c #436565",
"4	c #545454",
"5	c #654354",
"6	c #655454",
"7	c #655465",
"8	c #6554BA",
"9	c #656565",
":	c #658787",
";	c #65DCFE",
"<	c #7654A9",
"=	c #7654BA",
">	c #766565",
"?	c #766576",
"@	c #7665A9",
"A	c #7665BA",
"B	c #767676",
"C	c #76DCFE",
"D	c #8765A9",
"E	c #877676",
"F	c #877687",
"G	c #8776A9",
"H	c #8776BA",
"I	c #878787",
"J	c #986598",
"K	c #9876A9",
"L	c #988787",
"M	c #988798",
"N	c #9887A9",
"O	c #989898",
"P	c #A99898",
"Q	c #A998A9",
"R	c #A9A9A9",
"S	c #A9EDFE",
"T	c #BAA9A9",
"U	c #BAA9BA",
"V	c #BABAA9",
"W	c #BABABA",
"X	c #CB98A9",
"Y	c #CBBABA",
"Z	c #CBBACB",
"[	c #CBCBCB",
"]	c #CBDCCB",
"^	c #DCCBCB",
"_	c #DCCBDC",
"`	c #DCDCDC",
"a	c #EDDCDC",
"b	c #EDDCED",
"c	c #EDEDED",
"d	c #FEEDED",
"e	c #FEEDFE",
"f	c #FEFEFE",
"                        ",
" (((((((RUUYZZ[^__[_`ace",
" fde;(((6BMRX&(((((UY[^[",
" `^_`(('9FMQRJ((((((RTUT",
" WTUYb(3>BMQQM:(((((((((",
" RQQRZ(6*--)BMB(((((((((",
" QQQQRd*/10.)M?(((((((((",
" QNNQR`b9FL0MMB(((((((((",
" NNNNR^U?EIMLI19((((((((",
" NGKNRYE??IIIF16(((((See",
" GGGKRT7>BFFFFB7((((S`__",
" GADHNQ,+2FEBB??e((ebYUU",
" D@@DGNN/)EB??>]_bb`YRQR",
" @=<A@HG0>???>9VUZ[URQQQ",
" A(=<A@D6>>>>976RRRRRQQQ",
" 8((%8=<=097776MQQQQQNNN",
" (((((($&277657RRQQQNNNN",
" ((((((((776./OPQRRNNNGG",
" ((((((((4 *)?MOPQQ*KGGG",
" e((((((((( /FILMM))HGH@",
" `e((((((!)*?FFFF6)*DDDA",
" Z`Cbace)))/??BB?*))A@A=",
" UZYZ_acdF)999>7)1((<=<(",
" TRUWZ_`bd 666)#((((((((",};
