/* XPM */
static unsigned char *NestWithThreeEggs[] = {
"24 24 163 2",
"  	c None",
" !	c #1F1000",
" #	c #201000",
" $	c #201700",
" %	c #20170F",
" &	c #201800",
" '	c #201F0F",
" (	c #2F1F00",
" )	c #2F2710",
" *	c #301700",
" +	c #301F00",
" ,	c #30200F",
" -	c #302810",
" .	c #3F2000",
" /	c #3F270F",
" 0	c #3F2F10",
" 1	c #402700",
" 2	c #40270F",
" 3	c #402F0F",
" 4	c #402F10",
" 5	c #40371F",
" 6	c #403720",
" 7	c #4F3000",
" 8	c #4F3010",
" 9	c #4F3F1F",
" :	c #4F3F3F",
" ;	c #4F402F",
" <	c #4F403F",
" =	c #503700",
" >	c #50370F",
" ?	c #503F10",
" @	c #50401F",
" A	c #504020",
" B	c #504030",
" C	c #50403F",
" D	c #504730",
" E	c #50473F",
" F	c #5F3F10",
" G	c #5F4000",
" H	c #5F401F",
" I	c #5F471F",
" J	c #5F481F",
" K	c #5F482F",
" L	c #5F5030",
" M	c #5F5040",
" N	c #5F5750",
" O	c #604010",
" P	c #60481F",
" Q	c #604F20",
" R	c #605730",
" S	c #6F4000",
" T	c #6F4810",
" U	c #6F5730",
" V	c #6F5F30",
" W	c #6F5F3F",
" X	c #704F10",
" Y	c #70501F",
" Z	c #705020",
" [	c #705710",
" ]	c #705830",
" ^	c #705F2F",
" _	c #705F3F",
" `	c #705F4F",
" a	c #70683F",
" b	c #706840",
" c	c #70706F",
" d	c #7F5000",
" e	c #7F5F2F",
" f	c #7F6030",
" g	c #7F673F",
" h	c #7F6840",
" i	c #7F685F",
" j	c #805820",
" k	c #805F10",
" l	c #80602F",
" m	c #80673F",
" n	c #80684F",
" o	c #806F40",
" p	c #806F50",
" q	c #806F5F",
" r	c #80704F",
" s	c #8F6020",
" t	c #8F6F3F",
" u	c #8F7040",
" v	c #8F784F",
" w	c #906010",
" x	c #906720",
" y	c #90682F",
" z	c #906F3F",
" {	c #90702F",
" |	c #907060",
" }	c #90773F",
" ~	c #90786F",
"! 	c #907F6F",
"!!	c #908050",
"!#	c #90875F",
"!$	c #90886F",
"!%	c #908F70",
"!&	c #9F804F",
"!'	c #A0783F",
"!(	c #A0804F",
"!)	c #A0806F",
"!*	c #A0874F",
"!+	c #A0875F",
"!,	c #A08F50",
"!-	c #A08F5F",
"!.	c #A0906F",
"!/	c #A09770",
"!0	c #A0977F",
"!1	c #AF701F",
"!2	c #AF782F",
"!3	c #AF7F3F",
"!4	c #AF876F",
"!5	c #AF8F5F",
"!6	c #AF8F6F",
"!7	c #AF8F7F",
"!8	c #AF9070",
"!9	c #AF9880",
"!:	c #AF9F70",
"!;	c #AFA080",
"!<	c #B06F0F",
"!=	c #B0904F",
"!>	c #B0975F",
"!?	c #B0A06F",
"!@	c #B0A890",
"!A	c #BF907F",
"!B	c #BF977F",
"!C	c #BF985F",
"!D	c #BF9860",
"!E	c #BF9F6F",
"!F	c #BFA080",
"!G	c #BFA870",
"!H	c #BFA880",
"!I	c #BFA890",
"!J	c #C09750",
"!K	c #C09F80",
"!L	c #C0A760",
"!M	c #C0B080",
"!N	c #C0B790",
"!O	c #CFA78F",
"!P	c #CFAF6F",
"!Q	c #CFAF90",
"!R	c #D09F80",
"!S	c #D0A860",
"!T	c #D0B770",
"!U	c #D0B890",
"!V	c #DFA750",
"!W	c #DFAF90",
"!X	c #DFB8A0",
"!Y	c #DFC08F",
"!Z	c #E0B790",
"![	c #E0BFA0",
"!]	c #E0C8A0",
"!^	c #EFB090",
"!_	c #F0BF9F",
"!`	c #F0C0A0",
"!a	c #F0CFB0",
"!b	c #FFC8AF",
"!c	c #FFD7B0",
"!d	c #FFD7BF",
"!e	c #FFD8BF",
"!f	c #FFDFC0",
"!g	c #FFE7C0",
"              !-!.      !-!'                    ",
"            !'!P ~!9!-  !G!'  !-                ",
"             1  !H 1 S I!? Q U!&!U  !N          ",
"       n  !M!0 X s!' l I / * $ 2 # ]   [        ",
"    !(!'   l!& o f 6 ! ! $ # % { Y $!,          ",
"    !-   S R ^ 6 $ + $ + | | P ! z 4 - $!Y!Y    ",
"  !'!9 l!& O & 5 4 , >!`!_!R | D 9!3 U $ K!-    ",
"  !'!- j 7 $ 9 5 0 u!R!g!b!Q!  < S m U L &!'!@  ",
"  !U ^ 1 s ' 9 U @ 3!W!f!]!O!  E o T m ] $!G!D  ",
"    !'!D ? $ !![!X q R!Z!W!7 E : F {!1 1 ! u  !-",
"  !I { { I $!f!`!W!) :!4!) M < y w!# = [ U!?  !/",
"   l!< e!5!4!g!a!W!% < m Q z!' , U R 0!= $ W  !H",
"  !L!3!= x!O!b![!A q B D > * T w > e!6 j 9 o!G  ",
"!$ g k y [ $!W!K!  < C d!T!^!K N Z ; o!J @ -!D  ",
"  !;!H!V!? . p q < C m!D!g!_!B ~ < ,!S >!E W!M!.",
"  !/ = 1!3!' r + f > $!c!d![!F q < e!> } )!C!- t",
"!-!H u!( Z!2 G b 8 ( 3!e!`!Q!) B :!*!& g $ 5  !9",
"    !/ c!5 o!G ! e , I `!A!4 ` E ] ] g 8!P !  !#",
"    !!   7!8 * v 9 H e + D B < m!T A @ ! %!(!&!/",
"          !5 a J ! ^ . ] > 8 l z 1 ! )!. !!G!H  ",
"        !D!'!, W R V g _ R h $ $ ! $ $!! a      ",
"            !-!G M 5 r!& K . f ) ! R v !!S!- i  ",
"               }!-!: V W 6!> r h!T!?!!!/ Q      ",
"                 u!+     g $ f 0 n c!L!/        ",};
