/* XPM */
static unsigned char *NetscapeLogo[] = {
"23 23 60 1",
" 	c #000008",
"!	c #000818",
"#	c #001841",
"$	c #002028",
"%	c #004141",
"&	c #005959",
"'	c #006161",
"(	c #007179",
")	c #007979",
"*	c #008286",
"+	c #084149",
",	c #086969",
"-	c #086971",
".	c #088286",
"/	c #104951",
"0	c #105159",
"1	c #106169",
"2	c #10828E",
"3	c #182028",
"4	c #184951",
"5	c #185961",
"6	c #187179",
"7	c #187986",
"8	c #18828E",
"9	c #188A8E",
":	c #18B2B6",
";	c #204149",
"<	c #206169",
"=	c #208A96",
">	c #287186",
"?	c #287986",
"@	c #28828E",
"A	c #305151",
"B	c #308296",
"C	c #30929E",
"D	c #387986",
"E	c #496169",
"F	c #497986",
"G	c #498A96",
"H	c #49929E",
"I	c #59A2AE",
"J	c #5A5A5A",
"K	c #61D3DF",
"L	c #71929E",
"M	c #798286",
"N	c #86A2AE",
"O	c #8ECBD7",
"P	c #96A2A6",
"Q	c #96B2B6",
"R	c #A6A2A6",
"S	c #A6E3E7",
"T	c #AEBAC7",
"U	c #AECBCF",
"V	c #B6B2B6",
"W	c #B6CBD7",
"X	c #BEE3E7",
"Y	c #D7CBCF",
"Z	c #D7F3F7",
"[	c #DFDBDF",
"]	c #EFEBEF",
"JJJJJJJJJJJJJJJJJJJJJJJ",
"J##000$5$/$;//15#+++;;$",
"J$50/0%50;++5;55+;+5;;+",
"J505;5;05551551+5;55;5+",
"J&&015555015055555--&55",
"J(,(,,-,,'-5))--,',--(-",
"J(,-,((--,?QKP6,--,,-,,",
"J(--()))))LS8S3'))))))-",
"J(**)*****MY5I3$*))))**",
"J*****.*.*CW5O3$.*.*.*.",
"J).*.*.*..B[0Y$+..2.2.2",
"J=.*.*.*...X<T &....2.2",
"J=@======*C]5O#69=9=9=9",
"J]4@==*=IWZ]B[YRHC=9=.=",
"JYM$CIS[IF;;+05FIYL=C=S",
"J0[VE[F;+;;;;0B<1@ITMTU",
"J[0UU<;;;;;0<<<<7??=W:5",
"JEWH/+;;;01F?F=6=?<2@7U",
"JEY4%+;&FPLYGXLLL=HD7,Q",
"J[D%+/1WM ;[BX;!MU7B?,G",
"JQ+;>=HST3EK>O;A[SHH@?7",
"J%+'?T[0:W4[@S;[KHOTCBB",
"J%+1HEMQ>SRYBYMZ?HRMN:@",};
