/* XPM */
static unsigned char *NeXT[] = {
"45 45 101 2",
"  	c #000000",
" !	c #001000",
" #	c #002100",
" $	c #003108",
" %	c #004208",
" &	c #080010",
" '	c #080808",
" (	c #086310",
" )	c #087310",
" *	c #088410",
" +	c #088C18",
" ,	c #089C18",
" -	c #100000",
" .	c #100800",
" /	c #101008",
" 0	c #101010",
" 1	c #10AD18",
" 2	c #10CE21",
" 3	c #10DE21",
" 4	c #10EF29",
" 5	c #10FF29",
" 6	c #180021",
" 7	c #180818",
" 8	c #181810",
" 9	c #181818",
" :	c #210000",
" ;	c #211800",
" <	c #211818",
" =	c #212118",
" >	c #212121",
" ?	c #292921",
" @	c #292929",
" A	c #312900",
" B	c #313131",
" C	c #390042",
" D	c #393131",
" E	c #393939",
" F	c #420800",
" G	c #423900",
" H	c #424239",
" I	c #424242",
" J	c #4A0052",
" K	c #4A4A4A",
" L	c #521000",
" M	c #524A00",
" N	c #524A4A",
" O	c #525252",
" P	c #5A0063",
" Q	c #5A1810",
" R	c #5A5A52",
" S	c #5A5A5A",
" T	c #631008",
" U	c #635200",
" V	c #636363",
" W	c #6B0863",
" X	c #6B6B6B",
" Y	c #731808",
" Z	c #736300",
" [	c #737373",
" ]	c #7B0084",
" ^	c #7B7B7B",
" _	c #841808",
" `	c #847308",
" a	c #848484",
" b	c #8C1808",
" c	c #8C8408",
" d	c #8C8C8C",
" e	c #94009C",
" f	c #949494",
" g	c #9C2108",
" h	c #9C9408",
" i	c #9C9C9C",
" j	c #A5A5A5",
" k	c #AD2110",
" l	c #ADA508",
" m	c #ADADAD",
" n	c #B500BD",
" o	c #B5B5B5",
" p	c #BD2910",
" q	c #BDAD08",
" r	c #BDBDBD",
" s	c #C600CE",
" t	c #C6C6C6",
" u	c #CE2910",
" v	c #CEBD08",
" w	c #CECECE",
" x	c #D600DE",
" y	c #D6D6D6",
" z	c #DE2910",
" {	c #DECE08",
" |	c #DEDEDE",
" }	c #E700EF",
" ~	c #E7E7E7",
"! 	c #EF3110",
"!!	c #EFDE08",
"!#	c #EFEFEF",
"!$	c #F700FF",
"!%	c #F7F7F7",
"!&	c #FF3110",
"!'	c #FFEF08",
"!(	c #FFFFFF",
" m m j m m j m m j m m j m m j m m j m m j m m j m m j m m j m m j m m j m m j m m j m m m",
" m                                                                                        ",
" j   m j m j m j j j j j j j j j j j j j j j j j i j i j i j i i i i i i i i i i i i i ~!(",
" m   j!(!(!(!(!(!(!(!(!(!%!%!%!%!%!%!%!%!%!%!#!%!%!#!%!#!#!#!#!#!#!#!#!#!#!# ~!# ~ ~ ~ ~!(",
" m   j!(!(!%!(!%!%!%!%!%!%!%!%!%!%!%!#!%!#!%!%!#!#!#!#!#!#!#!#!#!#!# ~!# ~!# ~ ~!# ~ ~ ~!(",
" m   m!(!%!(!(!%!(!(!%!(!%!%!%!%!%!%!%!%!%!#!#!#!#!%!#!#!# ~!#!#!# ~!# ~ ~ ~!# ~ ~ ~ ~ ~!(",
" m   j!(!(!(!%!%!%!%!%!%!%!%!%!%!%!%!#!%!#!%!#!%!%!# y a y y!# ~!#!# ~!#!# ~ ~ ~ ~ ~ ~ ~!(",
" j   m!%!(!%!(!(!%!%!%!%!%!%!%!%!%!#!%!#!%!#!%!% | V     f r |!# ~!# ~ ~ ~!# ~ ~ ~ ~ ~ ~!(",
" m   j!(!%!(!%!%!(!%!%!%!%!%!%!%!#!%!%!%!#!% ~ [   ;     E i t ~ ~!# ~!# ~ ~ ~ ~ ~ ~ ~ ~!(",
" m   j!(!%!%!(!%!%!%!%!%!%!%!%!#!%!%!#!%!# d 8 l!'!'!' ` . ^ m w ~ ~ ~!# ~ ~ ~ ~ ~ ~ ~ ~!(",
" m   j!(!%!(!%!%!%!%!%!%!%!%!%!%!#!%!% f '   v v G ; M!! h @ f o y ~ ~ ~ ~ ~ ~ ~ ~ ~ ~ ~!(",
" j   j!(!%!%!%!%!%!%!%!%!%!%!#!%!% j 9 :   U!! /   G q!' h   X i r | ~ ~ ~ ~ ~ ~ ~ ~ ~ ~!(",
" m   j!%!(!%!(!%!%!%!%!%!#!%!% t @   k p   ` q ; l!' h ; U G 9 a m w ~ ~ ~ ~ ~ ~ ~ ~ ~ ~!(",
" m   j!(!%!%!%!%!%!%!%!%!% t O       .!& L h!!!' q G     v U   X f o y ~ ~ ~ ~ ~ ~ ~ ~ ~!(",
" m   j!%!%!%!%!%!%!%!% w O             k z M!' Z       A!' G   & a m w | ~ ~ ~ ~ | ~ ~ ~!(",
" j   j!(!%!%!%!%!%!%!% ^ : u b L -     .!& T q!! Z G U { q   P C S f r y ~ ~ ~ ~ ~ | ~ ~!(",
" m   j!%!%!%!%!%!%!%!% i @ _!&!&!& u g L k!  ' `!'!'!! c W x } J ' a j t | ~ ~ | ~ ~ ~ ~!(",
" m   j!%!%!%!%!%!%!%!% X S .!  k Q b u!&!&!& Y       C s!$ ] &     S f o y | | ~ ~ | ~ ~!(",
" m   j!%!%!%!%!%!%!#!% K ^ @ _!& /     ' Q b p   C n!$ n!$ 6         ^ j t | ~ ~ | ~ ~ ~!(",
" j   j!%!%!%!%!%!%!% t E S V '!  k           # ( ] e 6   n n         K d m w | ~ | | ~ ~!(",
" m   j!%!%!%!%!%!#!% m B I [ E Q!& F         ) 4         C!$ C         ^ i t y | ~ ~ ~ ~!(",
" m   j!%!%!%!%!#!%!% d B E S V 0 z Y         1 ,           n n         E d m w | | | ~ ~!(",
" m   j!%!%!%!#!%!%!% V @ @ B [ B   ) $     ! 5 (           C!$ C       0 a i r y | ~ ~ ~!(",
" j   j!%!%!%!%!#!#!% I B @ ? K V ' 3 5 4 , + 5 !             e n   0 B O ^ d m w | | ~ ~!(",
" m   j!%!#!%!#!%!#!% B > > > @ X E   # ) 1 5 5 2 * $         & 7 E V @ V [ a j t | | ~ ~!(",
" m   j!%!%!%!%!#!%!# j 9 = > 9 B S 0 /   ' 3 1 + 3 5 4 $   ' B R O @ 9 [ [ a j t | | ~ ~!(",
" m   j!%!#!%!#!%!#!% | @ 9 9 9 9 O I     $ 5 $     # ) ! D S O B > ' O [ ^ d m w | | ~ ~!(",
" j   j!#!%!#!%!#!#!#!# a 0 8 9 9 9 O 0   ( 4         B R O D @ 9 0 ' X [ ^ f o w | | ~ ~!(",
" m   i!%!#!%!#!%!#!%!# | E 0 0 8 9 B N   2 ,     @ K O E @ > 9 0 0 @ X [ a j t | | | ~ ~!(",
" m   j!%!%!#!#!#!#!#!#!# f 0 0 0 0 0 I > + % > H S N B > = 9 0 ' 0 O [ ^ d m w | | | ~ ~!(",
" m   j!#!#!%!#!%!#!#!#!# | E ' 0 0 0 > E ? I S O B @ > 9 9 0 0 ' 0 X [ ^ i r y | | | ~ ~!(",
" j   j!%!#!#!#!#!#!#!#!#!# i ' ' 0 ' 9 E S S H B @ ? > 9 0 9 ' @ X [ [ d j t y | | | ~ ~!(",
" m   i!#!%!%!#!#!#!#!#!#!# ~ O ' '   0 @ O H E B @ > 9 0   @ V [ [ ^ a i o y | | | | ~ ~!(",
" m   j!%!#!#!#!#!#!#!#!#!# ~ j   '   9 D I E E @ > 8 0 < X ^ a a d i j o w y | | | | ~ ~!(",
" m   i!%!#!#!#!#!#!#!#!# ~!# | [     9 I I E @ < 0 9 V ^ a d f j m r t y y | | | | | ~ ~!(",
" j   j!#!#!#!#!#!#!#!#!#!#!# ~ m 0   9 K E ? 9 0 S a a f j m r t w w y | | | | | | | ~ ~!(",
" m   i!#!#!#!#!#!#!#!# ~!# ~!# ~ [   ? I > 0 O a d i m o t w y y | | | | | | | | y | ~ ~!(",
" m   j!#!#!#!#!#!# ~!#!# ~!# ~ ~ m 0 B > I a f j o r t y y | | o a ^ a o ^ o | o ^ | ~ ~!(",
" m   i!#!#!#!#!#!#!#!# ~!# ~!# ~ ~ d I f j m r w w | | | ~ | ~ |!# ^!(!( a f | d a!( ~ ~!(",
" j   j!#!#!#!#!# ~!# ~!# ~!# ~ ~ ~ ~ w t t y | | | ~ | ~ | | | | | a!( | ^!% V y ^!( ~ ~!(",
" m   i!#!#!#!#!#!# ~!# ~!# ~ ~!# ~ ~ | | | ~ ~ ~ ~ | ~ | | ~ | | | a!( | ^!( d!( a!( ~ ~!(",
" m   i!#!#!#!#!# ~!# ~!# ~ ~ ~ ~ ~ ~ ~ ~ ~ ~ ~ ~ ~ ~ ~ ~ ~ | | | | |!( | |!( |!% y!( ~ ~!(",
" m   ~ ~ ~ ~ ~ ~ ~ ~ ~ ~ ~ ~ ~ ~ ~ ~ ~ ~ ~ ~ ~ ~ ~ ~ ~ ~ ~ ~ ~ ~ ~ ~ ~ ~ ~ ~ ~ ~ ~ ~ ~ ~!(",
" j   ~ ~ ~ ~ ~ ~ ~ ~ ~ ~ ~ ~ ~ ~ ~ ~ ~ ~ ~ ~ ~ ~ ~ ~ ~ ~ ~ ~ ~ ~ ~ ~ ~ ~ ~ ~ ~ ~ ~ ~ ~ ~!(",
" m  !(!(!(!(!(!(!(!(!(!(!(!(!(!(!(!(!(!(!(!(!(!(!(!(!(!(!(!(!(!(!(!(!(!(!(!(!(!(!(!(!(!(!(",};
