/* XPM */
static unsigned char *OldBlueAddingMachine[] = {
"24 24 63 1",
" 	c None",
"!	c #00071F",
"#	c #000F30",
"$	c #000F3F",
"%	c #000F40",
"&	c #00174F",
"'	c #001F50",
"(	c #0F172F",
")	c #0F1F50",
"*	c #0F275F",
"+	c #101710",
",	c #101720",
"-	c #102F60",
".	c #1F273F",
"/	c #1F376F",
"0	c #20272F",
"1	c #20376F",
"2	c #2F3F60",
"3	c #2F3F70",
"4	c #2F477F",
"5	c #30373F",
"6	c #30476F",
"7	c #30477F",
"8	c #3F4F70",
"9	c #3F4F80",
":	c #3F578F",
";	c #400000",
"<	c #40474F",
"=	c #40578F",
">	c #4F5F90",
"?	c #505750",
"@	c #50679F",
"A	c #5F5F5F",
"B	c #5F6FA0",
"C	c #5F77AF",
"D	c #606760",
"E	c #60676F",
"F	c #607FB0",
"G	c #6F6F6F",
"H	c #6F779F",
"I	c #6F7FB0",
"J	c #707770",
"K	c #7087BF",
"L	c #708FC0",
"M	c #7F1F1F",
"N	c #7F8FC0",
"O	c #8097D0",
"P	c #8F8F8F",
"Q	c #909790",
"R	c #90979F",
"S	c #90A7E0",
"T	c #9F9FA0",
"U	c #A06F6F",
"V	c #A0A7A0",
"W	c #AFAFAF",
"X	c #B0B7B0",
"Y	c #BFBFBF",
"Z	c #C0CFDF",
"[	c #CF6760",
"]	c #CFCFCF",
"^	c #D0D7D0",
"_	c #E0E7E0",
"`	c #EFEFEF",
"                ]]J     ",
"          >FLSSW^`^J    ",
"         >4BC&X<DT+5    ",
"        >FLF*(Y^W?0,F   ",
"       >F4FK-QJPWE.L9   ",
"       BLI=9((A]A(@CIL  ",
"      >LCBBB>4(%-/-9'FF ",
"      OBLLB>>:/-@>>QZFBF",
"     9@B=>>>>=9/'@3VPB>F",
"     =>==3>>=9:444>:W>>F",
"    =B4-499&=9:=4L:>>>BK",
"   :BT[W8-9=:49:>B>>=BF4",
"  9>T[;^^^694499F4=>=B> ",
" >>W[;^Q_A_^6449@>9=>>  ",
" %*=X^J_DQ_D^2339===>   ",
" $!'9X^GQ_DQY3/==9>>    ",
" $$$$)H^JDMX44N39=>     ",
" %%$##*4YUR>=O473>      ",
" '&&&$##-=94N=63B       ",
"  '%&&&&&'4FB319        ",
"   '&'&&&&-9764         ",
"     &'&&&)163          ",
"       ))&*33           ",
"        &&/9            ",};
