/* XPM */
static unsigned char *OldFashionedRadio[] = {
"24 24 88 1",
" 	c None",
"!	c #000700",
"#	c #0F0F0F",
"$	c #101710",
"%	c #1F1710",
"&	c #1F1F1F",
"'	c #201F00",
"(	c #202720",
")	c #2F1F00",
"*	c #2F1F1F",
"+	c #302700",
",	c #3F1710",
"-	c #3F2700",
".	c #3F2F00",
"/	c #400000",
"0	c #401710",
"1	c #402F00",
"2	c #4F0000",
"3	c #4F0700",
"4	c #4F2F2F",
"5	c #4F3700",
"6	c #500000",
"7	c #500700",
"8	c #503700",
"9	c #503F00",
":	c #5F0000",
";	c #5F3F00",
"<	c #5F3F3F",
"=	c #5F4700",
">	c #600700",
"?	c #600F0F",
"@	c #603730",
"A	c #603F00",
"B	c #604700",
"C	c #6F0700",
"D	c #6F4700",
"E	c #6F4F00",
"F	c #700F0F",
"G	c #703730",
"H	c #704F00",
"I	c #705700",
"J	c #7F1710",
"K	c #7F1F1F",
"L	c #7F5700",
"M	c #802720",
"N	c #803F3F",
"O	c #805700",
"P	c #805F00",
"Q	c #8F2720",
"R	c #8F2F2F",
"S	c #8F5F00",
"T	c #902F2F",
"U	c #903730",
"V	c #906700",
"W	c #906760",
"X	c #9F3730",
"Y	c #9F3F3F",
"Z	c #A03F3F",
"[	c #A04740",
"]	c #A04F4F",
"^	c #A06F00",
"_	c #AF4740",
"`	c #AF4F4F",
"a	c #B04F4F",
"b	c #B05750",
"c	c #BF5750",
"d	c #C05F5F",
"e	c #C06760",
"f	c #C07770",
"g	c #CF6760",
"h	c #CF6F6F",
"i	c #D06F6F",
"j	c #D07770",
"k	c #DF7770",
"l	c #DF7F7F",
"m	c #E07F7F",
"n	c #E08780",
"o	c #E08F8F",
"p	c #E0A7A0",
"q	c #EF8780",
"r	c #EF8F8F",
"s	c #EF9790",
"t	c #F08F8F",
"u	c #F09790",
"v	c #F09F9F",
"w	c #F0A7A0",
"x	c #F0AFAF",
"y	c #F0B7B0",
"                        ",
"                        ",
"   rvuqtqnmkiiieggZbf   ",
" rurmdtuutrqqmlibZbdcdcd",
"tyywcX_'.5;BD_cqidcdd_TT",
"nxxwcUZ'LEHDOAHdqkecUQMK",
"nwxvcXY)DBBI8L;imhd`ZJFJ",
"nwxwcXX-BBE9L=BikhgbZ??J",
"nxxudYU9BB=L1B9kkgdaZCFJ",
"nxyvdZTHPES8L;;ljhdaXCFJ",
"nxyvg[MVSLHS9HEqkhdaY>FF",
"nxxvh_kqjgePVD;rjhd`Y>?F",
"nv$Ni_jnqrrqqqttjidaY6?F",
"nw#,kY&VD95+5BLtd_daY6CF",
"oxvsnY&'--18EIHu*#UbY6>C",
"nxpsnU&SVVPLLD1uW(KbZ67>",
"ny!@nY5^VSSPOLHtlkgbZ63:",
"mxG0nvwwwvvnjhetg][d[627",
"b_dhnquttuvuwwvqa%4d_273",
"   e[YYY_gghgeihi<Md_366",
"         eYYUTTZYYYYT/6 ",
"                n[R?6:  ",
"                        ",
"                        ",};
