/* XPM */
static unsigned char *RH2tile[] = {
"32 32 374 2",
"  	c #000000",
" !	c #010101",
" #	c #020000",
" $	c #030000",
" %	c #030303",
" &	c #040000",
" '	c #040404",
" (	c #050000",
" )	c #050505",
" *	c #060000",
" +	c #060606",
" ,	c #070000",
" -	c #070707",
" .	c #080000",
" /	c #080808",
" 0	c #090606",
" 1	c #090909",
" 2	c #0A0202",
" 3	c #0A0A0A",
" 4	c #0B0000",
" 5	c #0C0000",
" 6	c #0C0C0C",
" 7	c #0D0000",
" 8	c #0D0B0B",
" 9	c #0D0D0D",
" :	c #0E0101",
" ;	c #0F0000",
" <	c #0F0F0F",
" =	c #100000",
" >	c #101010",
" ?	c #110000",
" @	c #110909",
" A	c #120000",
" B	c #120606",
" C	c #121212",
" D	c #130000",
" E	c #131111",
" F	c #131313",
" G	c #140E0E",
" H	c #141414",
" I	c #150000",
" J	c #150404",
" K	c #160000",
" L	c #160101",
" M	c #161616",
" N	c #170000",
" O	c #170B0B",
" P	c #171717",
" Q	c #180000",
" R	c #180909",
" S	c #181818",
" T	c #190000",
" U	c #191111",
" V	c #191313",
" W	c #191818",
" X	c #191919",
" Y	c #1A0000",
" Z	c #1A0505",
" [	c #1B0000",
" ]	c #1B0404",
" ^	c #1B1B1B",
" _	c #1C0B0B",
" `	c #1C0D0D",
" a	c #1C1414",
" b	c #1C1A1A",
" c	c #1C1B1B",
" d	c #1C1C1C",
" e	c #1D0000",
" f	c #1D0606",
" g	c #1D1313",
" h	c #1D1B1B",
" i	c #1D1D1D",
" j	c #1E0000",
" k	c #1E0505",
" l	c #1E0D0D",
" m	c #1E1414",
" n	c #1F0000",
" o	c #1F0606",
" p	c #1F0D0D",
" q	c #1F1F1F",
" r	c #200000",
" s	c #200707",
" t	c #210000",
" u	c #212121",
" v	c #220000",
" w	c #222222",
" x	c #230000",
" y	c #240000",
" z	c #242424",
" {	c #250000",
" |	c #252525",
" }	c #260000",
" ~	c #262626",
"! 	c #270000",
"!!	c #272727",
"!#	c #280000",
"!$	c #282828",
"!%	c #290000",
"!&	c #292929",
"!'	c #2A0000",
"!(	c #2B2B2B",
"!)	c #2C2C2C",
"!*	c #2D0000",
"!+	c #2D2D2D",
"!,	c #2E0000",
"!-	c #2E2E2E",
"!.	c #2F0000",
"!/	c #2F2F2F",
"!0	c #300000",
"!1	c #303030",
"!2	c #310000",
"!3	c #313131",
"!4	c #320000",
"!5	c #323232",
"!6	c #330000",
"!7	c #343434",
"!8	c #350000",
"!9	c #353535",
"!:	c #360000",
"!;	c #363636",
"!<	c #370000",
"!=	c #380000",
"!>	c #390000",
"!?	c #393939",
"!@	c #3A3A3A",
"!A	c #3B0000",
"!B	c #3B3B3B",
"!C	c #3C0000",
"!D	c #3D0000",
"!E	c #3D3D3D",
"!F	c #3E0000",
"!G	c #3E3E3E",
"!H	c #3F0000",
"!I	c #3F3F3F",
"!J	c #400000",
"!K	c #410000",
"!L	c #414141",
"!M	c #420000",
"!N	c #424242",
"!O	c #434343",
"!P	c #440000",
"!Q	c #444444",
"!R	c #450000",
"!S	c #460000",
"!T	c #464646",
"!U	c #470000",
"!V	c #474747",
"!W	c #484848",
"!X	c #490000",
"!Y	c #494949",
"!Z	c #4A0000",
"![	c #4A4A4A",
"!]	c #4B0000",
"!^	c #4B4B4B",
"!_	c #4C0000",
"!`	c #4C4C4C",
"!a	c #4D0000",
"!b	c #4E0000",
"!c	c #4E4E4E",
"!d	c #4F0000",
"!e	c #4F4F4F",
"!f	c #500000",
"!g	c #505050",
"!h	c #510000",
"!i	c #515151",
"!j	c #525252",
"!k	c #530000",
"!l	c #535353",
"!m	c #540000",
"!n	c #545454",
"!o	c #550000",
"!p	c #555555",
"!q	c #560000",
"!r	c #565656",
"!s	c #570000",
"!t	c #575757",
"!u	c #580000",
"!v	c #585858",
"!w	c #590000",
"!x	c #595959",
"!y	c #5A0000",
"!z	c #5A5A5A",
"!{	c #5B0000",
"!|	c #5B5B5B",
"!}	c #5C0000",
"!~	c #5C5C5C",
"# 	c #5D0000",
"#!	c #5D5D5D",
"##	c #5E0000",
"#$	c #5E5E5E",
"#%	c #5F0000",
"#&	c #600000",
"#'	c #606060",
"#(	c #610000",
"#)	c #626262",
"#*	c #630000",
"#+	c #636363",
"#,	c #640000",
"#-	c #650000",
"#.	c #656565",
"#/	c #660000",
"#0	c #666666",
"#1	c #670000",
"#2	c #676767",
"#3	c #680000",
"#4	c #686868",
"#5	c #696969",
"#6	c #6A0000",
"#7	c #6A6A6A",
"#8	c #6B0000",
"#9	c #6B6B6B",
"#:	c #6C0000",
"#;	c #6C6C6C",
"#<	c #6D0000",
"#=	c #6D6D6D",
"#>	c #6E0000",
"#?	c #6F0000",
"#@	c #6F6F6F",
"#A	c #700000",
"#B	c #707070",
"#C	c #717171",
"#D	c #720000",
"#E	c #727272",
"#F	c #730000",
"#G	c #740000",
"#H	c #747474",
"#I	c #750000",
"#J	c #757575",
"#K	c #760000",
"#L	c #770000",
"#M	c #787878",
"#N	c #790000",
"#O	c #797979",
"#P	c #7A7A7A",
"#Q	c #7B0000",
"#R	c #7C0000",
"#S	c #7D0000",
"#T	c #7D7D7D",
"#U	c #7E0000",
"#V	c #7E7E7E",
"#W	c #7F7F7F",
"#X	c #800000",
"#Y	c #808080",
"#Z	c #818181",
"#[	c #820000",
"#]	c #828282",
"#^	c #830000",
"#_	c #840000",
"#`	c #858585",
"#a	c #860000",
"#b	c #868686",
"#c	c #870000",
"#d	c #8A0000",
"#e	c #8A8A8A",
"#f	c #8B0000",
"#g	c #8C0000",
"#h	c #8C8C8C",
"#i	c #8D8D8D",
"#j	c #8E0000",
"#k	c #8F0000",
"#l	c #8F8F8F",
"#m	c #900000",
"#n	c #910000",
"#o	c #920000",
"#p	c #929292",
"#q	c #939393",
"#r	c #940000",
"#s	c #949494",
"#t	c #950000",
"#u	c #960000",
"#v	c #979797",
"#w	c #980000",
"#x	c #989898",
"#y	c #990000",
"#z	c #9A0000",
"#{	c #9A9A9A",
"#|	c #9B0000",
"#}	c #9B9B9B",
"#~	c #9C9C9C",
"$ 	c #9D0000",
"$!	c #9E0000",
"$#	c #9F0000",
"$$	c #9F9F9F",
"$%	c #A0A0A0",
"$&	c #A1A1A1",
"$'	c #A20000",
"$(	c #A30000",
"$)	c #A40000",
"$*	c #A4A4A4",
"$+	c #A50000",
"$,	c #A5A5A5",
"$-	c #A70000",
"$.	c #A7A7A7",
"$/	c #A80000",
"$0	c #A8A8A8",
"$1	c #A90000",
"$2	c #A9A9A9",
"$3	c #AA0000",
"$4	c #AAAAAA",
"$5	c #AB0000",
"$6	c #AC0000",
"$7	c #ACACAC",
"$8	c #AD0000",
"$9	c #ADADAD",
"$:	c #AEAEAE",
"$;	c #B00000",
"$<	c #B10000",
"$=	c #B20000",
"$>	c #B2B2B2",
"$?	c #B3B3B3",
"$@	c #B4B4B4",
"$A	c #B50000",
"$B	c #B5B5B5",
"$C	c #B60000",
"$D	c #B6B6B6",
"$E	c #B70000",
"$F	c #B7B7B7",
"$G	c #B90000",
"$H	c #BA0000",
"$I	c #BBBBBB",
"$J	c #BC0000",
"$K	c #BCBCBC",
"$L	c #BD0000",
"$M	c #BE0000",
"$N	c #BF0000",
"$O	c #BFBFBF",
"$P	c #C00000",
"$Q	c #C0C0C0",
"$R	c #C10000",
"$S	c #C40000",
"$T	c #C4C4C4",
"$U	c #C50000",
"$V	c #C70000",
"$W	c #C7C7C7",
"$X	c #C80000",
"$Y	c #C90000",
"$Z	c #C9C9C9",
"$[	c #CD0000",
"$]	c #CDCDCD",
"$^	c #CE0000",
"$_	c #CF0000",
"$`	c #D00000",
"$a	c #D0D0D0",
"$b	c #D10000",
"$c	c #D20000",
"$d	c #D2D2D2",
"$e	c #D30000",
"$f	c #D5D5D5",
"$g	c #D60000",
"$h	c #D6D6D6",
"$i	c #D80000",
"$j	c #D8D8D8",
"$k	c #DBDBDB",
"$l	c #DC0000",
"$m	c #DEDEDE",
"$n	c #DF0000",
"$o	c #DFDFDF",
"$p	c #E00000",
"$q	c #E1E1E1",
"$r	c #E20000",
"$s	c #E3E3E3",
"$t	c #E50000",
"$u	c #E60000",
"$v	c #E6E6E6",
"$w	c #E70000",
"$x	c #E8E8E8",
"$y	c #EB0000",
"$z	c #ECECEC",
"${	c #ED0000",
"$|	c #EEEEEE",
"$}	c #F1F1F1",
"$~	c #F40000",
"% 	c #F5F5F5",
"%!	c #FAFAFA",
"$}$|$x$q$j$a$W$O$D$9$*#}#q#e#Z#M#@#0#!!n!^!O!@!3!$ q M 9 '      ",
"%!% $z$s$k$d$Z$Q$F$:$,#~#q#e#Z#O#B#2#$!p!`!O!@!3!$ q M 9 )      ",
"%!% $I$@$7$*#}#q#e#Z#M#@#0#!!n!^!N!?!/ ~ i H 3 !                ",
"$}$|$B$:$.$$#v#l#b#V#J#;#+!z!j!Y!I!;!+ z ^ C 1                  ",
"$x$v$:$0$&#{#p#e#]#P#C#5#'!t!c!T!E!7!( w X < +                  ",
"$o$m$.$&#{#s#h#`#T#J#=#.!~!n!^!N!?!3!$ q M 9 '                  ",
"$h$f$$#{#s#i#b#W#M#B#4#'!v!e!V!I!;!+ z d F 3 !               , ,",
"$]$]#v#p#h#b#Y#O#E#7#+!|!l!^!O!@!5!& u S < -           # & ( = ?",
"$T$T#l#e#`#W#O#E#;#.#!!r!c!T!G!;!- | i H 6 %   # ( . 4 7 ; = Y Y",
"$K$I#b#]#T#M#E#;#.#$!t!g!Y!L!?!3!& u X > / $ . 5 ; D I Q T [ x y",
"$?$>#V#P#J#B#7#.#$!v!i![!O!B!7!) z d H 8 2 7 A K Y e r v y {!*!*",
"$4$2#J#C#=#4#+#!!t!i![!Q!E!9!-!! q P G B ? N [ r y! !'!*!.!0!:!<",
"$&$%#;#5#.#'!|!r!g![!Q!E!;!/!$ u W U R L [ r {!'!,!2!8!<!>!A!J!J",
"#x#v#+#'!~!v!l!c!Y!O!E!;!1!& w b g _ ] j y!%!.!6!=!C!H!M!P!S!X!Z",
"#l#l!z!t!n!e!^!T!L!B!9!/!& w h m p k r }!*!6!=!D!M!S!X!_!d!f!k!k",
"#b#b!j!c!^!V!O!G!?!7!-!$ w c m p o t!#!.!:!C!K!U!_!f!m!s!w!{!}# ",
"#T#T!Y!T!N!I!@!;!3!)!! u ^ a l s t!%!0!<!F!R!]!f!o!y###(#,#/#/#/",
"#H#H!I!E!?!;!5!-!& z q X V ` f r!#!0!=!H!U!a!m!y#%#,#3#:#>#A#?#A",
"#9#9!;!7!3!+!& | u d P E O Z j }!.!<!H!U!d!q!}#*#3#>#D#K#N#Q#N#N",
"#)#)!+!(!$ z u i X H < @ J [ y!*!:!F!U!d!q###-#:#D#L#R#X#^#a#[#^",
"!x!x z w q d S H > 6 0 : N r!%!6!C!R!a!q###/#<#G#Q#X#a#d#j#m#f#g",
"!g!g ^ X M F < 6 / % . A [ {!.!=!K!]!m!}#-#<#I#R#^#d#k#r#w#|#t#u",
"!W!V C < 9 3 - %   # 5 K r!'!6!D!U!f!y#*#:#G#R#_#g#o#y$!$'$+$!$#",
"!I!G 1 + ' !       ( ; Y y!,!=!M!_!o#%#3#D#Q#^#g#r#|$'$-$6$;$/$1",
"!;!9               . D e! !2!C!S!f!y#,#>#L#X#d#o#|$($3$<$C$H$<$=",
"!+!+               4 I r!'!8!H!X!m###3#D#R#a#k#y$'$3$=$G$N$S$H$J",
" z z             # 7 Q v!*!<!M!_!s#(#:#K#X#d#r$!$-$<$G$R$X$^$S$U",
" ^ ^             & ; T y!.!>!P!d!w#,#>#N#^#j#w$'$6$C$N$X$b$i$[$_",
" C C             ( = [ {!0!A!S!f!{#/#A#Q#a#m#|$+$;$H$S$^$i$p$g$i",
" 1 1             * ? [ }!2!C!U!h!}#1#D#R#c#o$ $-$=$L$V$c$l$u$n$r",
"           # 4 I j!#!2!A!P!a!s#&#6#F#S#a#k#y$'$5$A$M$V$`$i$p$w$y",
"           # 5 I n!#!4!A!R!b!u#(#8#G#U#c#n#z$)$8$E$P$Y$e$l$t${$~",};
