/* XPM */
static unsigned char *ScrewdriverOnSquareWithScrews[] = {
"24 24 80 1",
" 	c #0F0F00",
"!	c #1F0F00",
"#	c #1F0F0F",
"$	c #1F4060",
"%	c #2F0F00",
"&	c #2F0F0F",
"'	c #2F2000",
"(	c #2F201F",
")	c #2F4060",
"*	c #400F00",
"+	c #402000",
",	c #40200F",
"-	c #502000",
".	c #50200F",
"/	c #50300F",
"0	c #505060",
"1	c #600F1F",
"2	c #60200F",
"3	c #60201F",
"4	c #603000",
"5	c #60300F",
"6	c #60301F",
"7	c #605050",
"8	c #70200F",
"9	c #703000",
":	c #70300F",
";	c #70301F",
"<	c #70401F",
"=	c #80201F",
">	c #80202F",
"?	c #803000",
"@	c #80400F",
"A	c #80B8EF",
"B	c #903000",
"C	c #904000",
"D	c #90B8FF",
"E	c #A03040",
"F	c #A04000",
"G	c #A0400F",
"H	c #A0500F",
"I	c #A0501F",
"J	c #A0B8CF",
"K	c #B03040",
"L	c #B04000",
"M	c #B0500F",
"N	c #B0501F",
"O	c #B0670F",
"P	c #B0671F",
"Q	c #B06760",
"R	c #CF670F",
"S	c #CF671F",
"T	c #CF771F",
"U	c #DF771F",
"V	c #DF871F",
"W	c #DF971F",
"X	c #DFA870",
"Y	c #DFC8CF",
"Z	c #EF6770",
"[	c #EF871F",
"]	c #EF971F",
"^	c #EFA81F",
"_	c #EFA82F",
"`	c #EFB82F",
"a	c #FF7780",
"b	c #FFB82F",
"c	c #FFB8B0",
"d	c #FFC82F",
"e	c #FFC840",
"f	c #FFD840",
"g	c #FFD850",
"h	c #FFD860",
"i	c #FFD870",
"j	c #FFEF70",
"k	c #FFEF80",
"l	c #FFEF90",
"m	c #FFEFA0",
"n	c #FFEFB0",
"o	c #FFEFCF",
"p	c #FFEFDF",
"q	c #FFFFFF",
"pponmliggfffefeedddddddd",
"pNSTUUVVW]W]VVVVVUTRPMI!",
"oSTTUVVW]]]]]WVVVTQa=OM!",
"oTTOBF9+W]]]]]WVVQc,Z1M!",
"oTUC]]9X@]]]]]]WQc,Z!>O!",
"nUUF]Lq?']]]]]]Qc,Z!>!P#",
"nVV?9pL4-]]^^]Qc,Z!>!O.#",
"nVV+X?4+V^^^^Qc,Z!>!S.,#",
"mVVW@'-V^^^^Qc,Z!>!T//.#",
"mVW]]^^^_^_7EEZ!>!V5/.,#",
"lW]]^^^`b`bqK 1>!V5///.#",
"l]]]^_`bbbb!E1 !W5/5/.,%",
"k]]^^`bbbb) !3!]:55///O+",
"k]]^_``bbY$!_^]]55///OO*",
"i]]^^`bbJD(`^^]]555/ROM'",
"h]]^_``JD(`__]]:5V/RSMO%",
"h]]^^`JD(`b_^]:5RBF9+OM%",
"g]]^^JD(``_^]:;VC]]9X@N%",
"h]]^YD(``_^^:;[VF]Lq?'M!",
"j]]qD!^^_^^<;]VV?9pL4-H!",
"j]YA!]^^^^:;]WVV+X?9+SH!",
"k]0!]]]]]:6]WVVUT@'-SHH!",
"kW]_^^]]:55]]VVUSSSPMHG!",
"l888222&&&.-,*+*%%%%!!!!",};
