/* XPM */
static unsigned char *SQLWindowCornerWithScrewdriver[] = {
"24 24 43 1",
" 	c #000000",
"!	c #000077",
"#	c #000088",
"$	c #000099",
"%	c #0000AA",
"&	c #0000BB",
"'	c #0000CC",
"(	c #0000DD",
")	c #0000EE",
"*	c #0000FF",
"+	c #110055",
",	c #1100FF",
"-	c #111144",
".	c #111155",
"/	c #1111EE",
"0	c #221144",
"1	c #383862",
"2	c #443333",
"3	c #443344",
"4	c #463862",
"5	c #4638F0",
"6	c #4646F0",
"7	c #5446E2",
"8	c #5446F0",
"9	c #5454E2",
":	c #555555",
";	c #6254D4",
"<	c #6254E2",
"=	c #6262D4",
">	c #7162C6",
"?	c #8D82C6",
"@	c #8D82D1",
"A	c #8D8DC6",
"B	c #988DA4",
"C	c #988DAF",
"D	c #988DBA",
"E	c #988DC6",
"F	c #A9A9A9",
"G	c #AAAAAA",
"H	c #B2A9B2",
"I	c #B2A9BA",
"J	c #C6C6C6",
"K	c #FFFFFF",
"::::::::::::::::::::::::",
":BIIIBBBCCDDDDA?@>=;<97G",
":IIHIIIICCCDDEEA@@>=;97G",
":HHHHHIIICCCDDEE@@>=;<7G",
":HHFHHHIICCDDDEA?GKKKKKG",
":HHGG:::GGGGGGGGG::::::G",
":HH  :::           ::::G",
":KKKK::::::::::::      G",
":GGGG32323232:::: 2401+G",
":GGGGGGGGGGGGK GG G01-.G",
":GGGGGGGGGGGGKG G G;977G",
":GGGGGGGGGGGGKGGG G<976G",
":GGGGGGGGGGGG     G7765G",
":::::::::::::::::::7855G",
":JG:JJJJJJJJJJJJJJK655,G",
":JG:JJ JJJ  JJ  JJK55/,G",
":JG:J JJJ JJ J JJJK5,,*G",
":JG:JJ   JJJ J JJJK,,*)G",
":JG:JJJ   J :J JJJK*)('G",
":JG:JJ JJ   J    JK)('&G",
":JG:JJJJJJJ JJJJJJK'&&$G",
":KKKKKKKKKKKKKKKKKK&%$#G",
": G:              K%$#!G",
":GGGGGGGGGGGGGGGGGGGGGGG",};
