/* XPM */
static unsigned char *SunMicrosystemsMonitor[] = {
"24 24 52 1",
" 	c None",
"!	c #000000",
"#	c #00E000",
"$	c #080C10",
"%	c #182028",
"&	c #301830",
"'	c #302C38",
"(	c #303451",
")	c #303C38",
"*	c #384951",
"+	c #414151",
",	c #414571",
"-	c #493059",
".	c #514151",
"/	c #514179",
"0	c #514959",
"1	c #515161",
"2	c #515171",
"3	c #516171",
"4	c #51618E",
"5	c #516559",
"6	c #615161",
"7	c #615171",
"8	c #61518E",
"9	c #616171",
":	c #695D8E",
";	c #697179",
"<	c #69719E",
"=	c #715171",
">	c #71718E",
"?	c #86928E",
"@	c #8E8286",
"A	c #8E82AE",
"B	c #8E8A9E",
"C	c #8E9A9E",
"D	c #9E8A9E",
"E	c #9E9A9E",
"F	c #9E9AA6",
"G	c #9E9AAE",
"H	c #A6A2A6",
"I	c #AEAAAE",
"J	c #AEAEB6",
"K	c #B6BABE",
"L	c #B6C3BE",
"M	c #C7C3CF",
"N	c #C7D3CF",
"O	c #CFCBCF",
"P	c #D7D3DF",
"Q	c #DFDBE7",
"R	c #EFDBEF",
"S	c #EFEBEF",
"T	c #FFFBFF",
"                        ",
" SSSSSSSSSSSSSSRQQQPNOPD",
" SSSSSSSSSSMNSRQQQPNOOM%",
" SS!!!!!!!9GG0!!!!!!!ML%",
" SS!2233:J9G+J@::3322KK$",
" SS!2888G*F0G+B288822KJ$",
" SS!888G+A*G+A+>28882KJ$",
" SS!88GBL+G0F*BB1:882JI$",
" SS!8GBLG+,GGGB9>&/83II$",
" SS!IBGGIGG,*B9B9>;(3IH$",
" SS!:BGJGHG(ABB9>.9&4HH$",
" SS!8'GBHG+BB-1>09+&3HG$",
" SS!8:>HH>,A+B09>1&,4EE$",
" SS!882>B1A+B*>+'&,83ED$",
" SR!288,<G9B+B*1(,822D?$",
" RQ!23442>C0C)*(,3222D@$",
" QQITTTTTSBBB>ESTTTTT@@$",
" QQPNOMMKJH0%5HHGED0#@@$",
" I::::::=7700072000000-!",
"      9..LH@1)%$&))     ",
"     Q@@@@6())(1@@?&    ",
"    TTTTTTTTTTTTTTTT&   ",
"    IIIIIIIIIIIIIIII!   ",
"                        ",};
