/* XPM */
static unsigned char *TapeOnMeshNetting[] = {
"24 24 81 1",
" 	c None",
"!	c #000000",
"#	c #110000",
"$	c #111111",
"%	c #221122",
"&	c #222222",
"'	c #222233",
"(	c #330011",
")	c #332233",
"*	c #332244",
"+	c #333333",
",	c #333344",
"-	c #382A2A",
".	c #382A38",
"/	c #440011",
"0	c #441111",
"1	c #443344",
"2	c #443355",
"3	c #444455",
"4	c #444466",
"5	c #545454",
"6	c #551111",
"7	c #554455",
"8	c #554466",
"9	c #554477",
":	c #555566",
";	c #555577",
"<	c #556677",
"=	c #661111",
">	c #662211",
"?	c #665566",
"@	c #665577",
"A	c #665588",
"B	c #666677",
"C	c #666688",
"D	c #666699",
"E	c #667788",
"F	c #716271",
"G	c #71717F",
"H	c #71718D",
"I	c #772211",
"J	c #773311",
"K	c #775555",
"L	c #776688",
"M	c #776699",
"N	c #777799",
"O	c #7777AA",
"P	c #7777BB",
"Q	c #7788AA",
"R	c #7788BB",
"S	c #7F7F7F",
"T	c #828282",
"U	c #877F87",
"V	c #883300",
"W	c #883311",
"X	c #883322",
"Y	c #885566",
"Z	c #887799",
"[	c #8888AA",
"]	c #8888BB",
"^	c #8899BB",
"_	c #8899CC",
"`	c #992222",
"a	c #993300",
"b	c #993311",
"c	c #994400",
"d	c #994411",
"e	c #995577",
"f	c #996677",
"g	c #9988AA",
"h	c #999999",
"i	c #9999AA",
"j	c #9999CC",
"k	c #AA4400",
"l	c #AA99AA",
"m	c #AA99CC",
"n	c #AAAAAA",
"o	c #AAAACC",
"p	c #CCBBEE",
"q	c #CCCCFF",
"r	c #DDCCFF",
"(                     0 ",
" 6          T1;8n    6 5",
"  =>IIJWVWaK3BB1:XJII 5 ",
"  >55W55d5F8CL2@C:55J5  ",
"  I5 W5 kF;CN8)CCC:nV5  ",
"  IWWbdke@NO;*NM<LC:`5  ",
"  I55d5GCN]C,NN3?;LC:5  ",
"  W5 kGMO^D,OO2!!&ECC:n ",
"  VWcfORjO,[[3!Z2!1CC@8 ",
"  W5HP]_O,]]4!)mq!%C:8U ",
"  VGMQ]M,]]4%&!o2!ENC-SS",
"  Y@N[A,]]:B,7!!!<NC65SS",
" T7BN:*O]4!!$1),EOM-65S ",
"lhiN');94!mg!)%<[N.Sd5  ",
" %',LN8:#!pr!$;]N666c5  ",
"  &&QLN')!82!:]O.655d5  ",
"  W43^MN3#!!3]O-S65 a5  ",
"  IW42^MN'+B[N666kdaW5  ",
"  I552*^MN3ON-655d55V5  ",
"  >5 W)%^LML.S65 b5 J5  ",
"  >>IJV%%[B666cdaWVJI5  ",
" 6 55555--55555555555>  ",
"/ 5     SSSSS         6 ",
" 5       SSS           5",};
