/* XPM */
static unsigned char *ToasterFull[] = {
"24 24 69 1",
" 	c None",
"!	c #0F0F0F",
"#	c #101710",
"$	c #1F1F1F",
"%	c #202720",
"&	c #2F1F0F",
"'	c #2F2F2F",
"(	c #302F20",
")	c #303730",
"*	c #3F2F0F",
"+	c #3F371F",
",	c #3F3730",
"-	c #3F3F3F",
".	c #403710",
"/	c #403F2F",
"0	c #404740",
"1	c #4F370F",
"2	c #4F3710",
"3	c #4F3F10",
"4	c #4F3F20",
"5	c #4F4720",
"6	c #4F4F40",
"7	c #4F4F4F",
"8	c #503F10",
"9	c #50574F",
":	c #505750",
";	c #5F470F",
"<	c #5F471F",
"=	c #5F4720",
">	c #5F5F5F",
"?	c #604F1F",
"@	c #605720",
"A	c #605740",
"B	c #606760",
"C	c #6F4F20",
"D	c #6F572F",
"E	c #6F5F2F",
"F	c #6F5F3F",
"G	c #6F6F6F",
"H	c #705F2F",
"I	c #705F30",
"J	c #706730",
"K	c #707770",
"L	c #7F5F2F",
"M	c #7F6730",
"N	c #7F6F40",
"O	c #7F7F7F",
"P	c #80672F",
"Q	c #806F3F",
"R	c #808780",
"S	c #8F773F",
"T	c #8F7740",
"U	c #8F774F",
"V	c #8F8F8F",
"W	c #907F5F",
"X	c #90875F",
"Y	c #909790",
"Z	c #9F8750",
"[	c #9F9F9F",
"]	c #A0A7A0",
"^	c #AFAFAF",
"_	c #B0B7B0",
"`	c #BFAF7F",
"a	c #BFBFBF",
"b	c #C0AF7F",
"c	c #C0C7C0",
"d	c #CFCFCF",
"e	c #D0D7D0",
"f	c #DFDFDF",
"          ?MW           ",
"         MLSP8 HC       ",
"        @QH;1??bTI      ",
"       ??3<82J`Z<U      ",
"       I**.&DXNI=5Kd    ",
"      _A8*,/MEF4(%0dc   ",
"    e]V:97-FZ?+0!Yc_Y   ",
"   d^VOG0^'#86%'daYKK   ",
"   de]R^70''#$Vd[VKVO   ",
"  fedeeYRB:>]e_VRKRVK   ",
"  eeeedeeacfc^VOKRVRG   ",
"  eeeeeddda_]OKVVYVKB   ",
"  eedeedd]^RKVYYVVRKB   ",
"  eeR'[ccOBVVYYVVROGB-  ",
"  dc$%'_^VVVYYYYVROB7   ",
"  c#$%O^^[VVYYYVVO>:)   ",
"  c^07__^]YYYYVVOB:)    ",
"  c^^]__^]YYVVROG>)     ",
"  0#BY_^^]YVROKG>)      ",
"  G%)O[^^]VRKGB7)       ",
"  0%#BGKVYRGB:-)        ",
"   )V$$#7OB:0)          ",
"    %BO$$G7)            ",
"      %-#)              ",};
