/* XPM */
static unsigned char *WindowsLogoMonitor[] = {
"24 24 91 1",
" 	c None",
"!	c #000000",
"#	c #000044",
"$	c #000066",
"%	c #0000BB",
"&	c #0000CC",
"'	c #0000DD",
"(	c #0000FF",
")	c #001100",
"*	c #002200",
"+	c #110000",
",	c #110011",
"-	c #111100",
".	c #111111",
"/	c #111122",
"0	c #112200",
"1	c #115500",
"2	c #221122",
"3	c #222222",
"4	c #222233",
"5	c #2A2A2A",
"6	c #2A2AE2",
"7	c #2A2AF0",
"8	c #331122",
"9	c #332200",
":	c #332222",
";	c #332233",
"<	c #383846",
"=	c #442233",
">	c #442244",
"?	c #443300",
"@	c #443333",
"A	c #443344",
"B	c #545454",
"C	c #5454AF",
"D	c #5454BA",
"E	c #5454C6",
"F	c #5454D1",
"G	c #553344",
"H	c #554444",
"I	c #554455",
"J	c #605460",
"K	c #624662",
"L	c #664444",
"M	c #664455",
"N	c #665544",
"O	c #665555",
"P	c #665566",
"Q	c #770000",
"R	c #774455",
"S	c #775555",
"T	c #775566",
"U	c #776600",
"V	c #776666",
"W	c #776677",
"X	c #7F7F7F",
"Y	c #7F7FA1",
"Z	c #7F7FBA",
"[	c #877F87",
"]	c #880000",
"^	c #885566",
"_	c #885577",
"`	c #886666",
"a	c #886677",
"b	c #887777",
"c	c #887788",
"d	c #996677",
"e	c #997777",
"f	c #997788",
"g	c #998899",
"h	c #A17F7F",
"i	c #A97F7F",
"j	c #AA7788",
"k	c #AA8888",
"l	c #AA8899",
"m	c #AAAAAA",
"n	c #AAAAAF",
"o	c #AAAAB5",
"p	c #AFAAAA",
"q	c #AFAAAF",
"r	c #B5AAAA",
"s	c #BA5454",
"t	c #BB0000",
"u	c #BB8899",
"v	c #BBAAAA",
"w	c #BBAABB",
"x	c #BEBEBE",
"y	c #D15454",
"z	c #DD0000",
"{	c #FF0000",
"|	c #FFFF00",
"[[[[[[[[[[[[[[[[[[[[[[[[",
"JMPTTTWaaafffflllllullkj",
"JMMIMMMOTTTTV`abeeekffjf",
"JHAxxxxxxxxxxxxxxxxxxxfd",
"JHMxxxxxxxxxm5!!!!!Bmxda",
"JGMxmBmmmm5BB+Q])0)!Bxa_",
"JGMxvrXx5XXXB{{z011!Bx^W",
"JGOxpiyr{i{BX{{z*11!BxTT",
"JASxp{hrir{BB{{t-11!BxTT",
"J@SxmXvmshrXB!#$9?+!BxTR",
"JASxqmBm!X!BX(('U||!BxRM",
"J=Oxx6ZoFo(BB((&U||!BxMM",
"J=SxoDnnooCBB((%U||!BxMM",
"J=SxmxEn7YDBX!!!!!!!BxMM",
"J=Sxx5Bm5X!BBmxxxxmXBxMM",
"J=SxxxxxmmxxxxxxxxxxxxTT",
"J=NbabbacabcacWWWbfglfTa",
"J=;;MAAGGHMMMTTTTaaaaaaf",
"J2228:;===@AGHLMMOTTTVac",
"  22222:;;;=@@AGMSITTT  ",
"  2223:;;;=A@GGMTMMWaa  ",
"      <22;;===>GWK      ",
"     J..,.2;@GMI2/.     ",
"     ,.,.,/8MjwM422p    ",};
