/* XPM */
static unsigned char *Windows95Computer[] = {
"24 24 74 1",
" 	c None",
"!	c #202720",
"#	c #2F271F",
"$	c #2F3720",
"%	c #2F373F",
"&	c #2F972F",
"'	c #30301F",
"(	c #30404F",
")	c #304830",
"*	c #3F301F",
"+	c #3F5830",
",	c #3F5F3F",
"-	c #4F3F1F",
".	c #4F6780",
"/	c #4F6F8F",
"0	c #4F7740",
"1	c #4F7840",
"2	c #507090",
"3	c #50789F",
"4	c #5F5F5F",
"5	c #5F7FA0",
"6	c #5F80AF",
"7	c #5F87AF",
"8	c #606760",
"9	c #6088BF",
":	c #608FBF",
";	c #6090C0",
"<	c #6F382F",
"=	c #6F98CF",
">	c #6F9FD0",
"?	c #6FA85F",
"@	c #6FB060",
"A	c #707770",
"B	c #70A0DF",
"C	c #70A7DF",
"D	c #70BF60",
"E	c #7F5F20",
"F	c #7F7F7F",
"G	c #7FC76F",
"H	c #7FD070",
"I	c #806720",
"J	c #808780",
"K	c #80D770",
"L	c #909790",
"M	c #90989F",
"N	c #9F4830",
"O	c #9F9FA0",
"P	c #A07820",
"Q	c #AF5030",
"R	c #AF8720",
"S	c #AFB0AF",
"T	c #BFBFBF",
"U	c #C0583F",
"V	c #C0C8C0",
"W	c #CFC8CF",
"X	c #D0D7D0",
"Y	c #DF673F",
"Z	c #DFA020",
"[	c #DFD8DF",
"]	c #DFE0DF",
"^	c #E0E8E0",
"_	c #EF673F",
"`	c #EF683F",
"a	c #EFEFEF",
"b	c #F07040",
"c	c #F0F7F0",
"d	c #FF6840",
"e	c #FF7040",
"f	c #FF7740",
"g	c #FFBF2F",
"h	c #FFC72F",
"i	c #FFCF2F",
"j	c #FFD02F",
"k	c #FFF8EF",
"     ^^^]][XXXWVVTTTJ   ",
"     ^]][XXWVTTTSSSO88J ",
"     ]QYYYUQ#!$?@@OO884 ",
"     ]QbfffQ#!)DKKOO884 ",
"     [QffffN#!+GKKSO884 ",
"     [Qed_`<#!0HKKMO884 ",
"     X!!###!!!,GKKOO884 ",
"     X!!!###!!!!!1OO884 ",
"     X29=>.#!'!!!!OO884 ",
"     X3563(!!IhgE!OL88  ",
"     W3CB;%!!-EIPROL88  ",
"     W3:7/!!*ZjiihOL88  ",
"     VVVTTTTTTTSSOOL8   ",
"     SSSSSSSSSSSOOOL8   ",
"       c[LF88844444444AA",
"    [^[SLAAAA8888444AA44",
"    aSSSSSSTVVTTSLLL4444",
"    aS&SSSSSSSSSSSSS4444",
"    cSSSSSSSSSJ44OJS4444",
"   OTOVTOTSSSSSSSSSS4444",
" OX[JTOJSLTLLFVTOSSS44  ",
"FOW^^^LTJTLJTTOLTFT4    ",
"   AAAOOWWkk[TSSOS4     ",
"          AAAOOWO8      ",};
