/* XPM */
static unsigned char *Wizard[] = {
"24 24 49 1",
" 	c #000000",
"!	c #000B00",
"#	c #111111",
"$	c #130000",
"%	c #13001C",
"&	c #130B00",
"'	c #130B1C",
"(	c #13221C",
")	c #13421C",
"*	c #222222",
"+	c #333333",
",	c #3B001C",
"-	c #3B0054",
".	c #3B0B1C",
"/	c #3B0B54",
"0	c #3B221C",
"1	c #3B2254",
"2	c #3B421C",
"3	c #3B4254",
"4	c #3B6854",
"5	c #444444",
"6	c #555555",
"7	c #666666",
"8	c #712254",
"9	c #7122A1",
":	c #714200",
";	c #714254",
"<	c #7142A1",
"=	c #716854",
">	c #7168A1",
"?	c #7195A1",
"@	c #777777",
"A	c #888888",
"B	c #999999",
"C	c #AAAAAA",
"D	c #B242A1",
"E	c #B26854",
"F	c #B268A1",
"G	c #B29500",
"H	c #B2951C",
"I	c #B295A1",
"J	c #B2C7A1",
"K	c #BBBBBB",
"L	c #CCCCCC",
"M	c #DDDDDD",
"N	c #EEEEEE",
"O	c #FF95A1",
"P	c #FFC7A1",
"Q	c #FFFFFF",
"QQQQQQQQQQQQQQQQQQQQQQQQ",
"Q4343434I9,,  !.34343434",
"Q4444444I8-H   &44444444",
"Q434343=F/GHG: $)4343434",
"Q444444I<--HH   14444444",
"Q434343I8-G.G   ,4343434",
"Q444444I8--,    %4444444",
"Q4343448/-,/',,  4343434",
"Q44444>9- ,;.  ,% 444444",
"Q4343)% 00##0;##  343434",
"Q4444Q6QQQL@3QQKC7Q44444",
"Q434Q@6           AL3434",
"Q444QB+  &'8&#0(% LKM344",
"Q434NQ#6QPI=&'IO0 6MM444",
"Q4?4QN##MJ=J&'O=& +Q7M44",
"Q4NQKN#Q6I#3 'E(N67NN234",
"Q4QL7B*Q@@QL=Q#QQ7 *M*44",
"Q43Q5A*QLLLII7QLBM #A(34",
"Q4I!   @QQ+I INM+K ! *44",
"QI%II8 LKN3KQ+ILM I1I8 4",
"QD%II86QC6QMQ66BN <I1<I4",
"Q8-<F-'BQ6QNBQQLM /F%F-4",
"Q1%/- %7QQQM5QJCA -8-(-4",
"Q43434343434243434343434",};
