/* XPM */
static unsigned char *WomanEyeInMonitor[] = {
"24 24 58 1",
" 	c None",
"!	c #000000",
"#	c #000408",
"$	c #180408",
"%	c #181408",
"&	c #181818",
"'	c #201020",
"(	c #202020",
")	c #202030",
"*	c #203030",
"+	c #300408",
",	c #302030",
"-	c #303030",
".	c #303838",
"/	c #380818",
"0	c #382418",
"1	c #413030",
"2	c #414141",
"3	c #414551",
"4	c #494941",
"5	c #511008",
"6	c #512018",
"7	c #512428",
"8	c #515151",
"9	c #516151",
":	c #612028",
";	c #616969",
"<	c #692010",
"=	c #792830",
">	c #794920",
"?	c #862018",
"@	c #868A9E",
"A	c #963430",
"B	c #964141",
"C	c #965D49",
"D	c #967571",
"E	c #A65528",
"F	c #B63430",
"G	c #BE6561",
"H	c #BE8269",
"I	c #C74541",
"J	c #C75151",
"K	c #C75949",
"L	c #C78E86",
"M	c #CF6151",
"N	c #CF9E96",
"O	c #CFC7BE",
"P	c #D76169",
"Q	c #D7A2AE",
"R	c #DF6151",
"S	c #DFBAB6",
"T	c #DFC3D7",
"U	c #DFD3D7",
"V	c #E7E3DF",
"W	c #E7E3E7",
"X	c #E7E3EF",
"Y	c #F7F3F7",
"Z	c #FFFBFF",
"                        ",
" Y'((,,),-----,,,,,'''$ ",
" '0,,--111111111-,,'('$!",
" (,(''$$##!##!###$'''&'!",
" ,1ZYUSNLG=6::B==AB:=''!",
" 77XVUQNLD6+//??=??5=',!",
" 73VTTQNHC6667====B6<$*!",
" 38XWOQQLC:6+%$/0:=6=#,!",
" CCZXOSQLA?//C%!#$65=!,!",
" 8CZYTSQGJFE?6=66/57F#1!",
" 9;YXUQNDGKJIEEFF>?=B#1!",
" 8;XUUQQHPGMJJJJJJBAB#1!",
" 8CVUTSNLPHMGMJJJMJ?I',!",
" 3CXVVSQHPGMPPGJRJJ?I'*!",
" 2CYYUTLHGMMPPPRKKJ?B(,!",
" 14#!##!#!#!#!#!###!!',!",
" ,123CC;;;CCCCC833.7,&'!",
" ')1238CCCCCCC83477,)&'!",
"       @!!!!!!!!!       ",
"        D!!!!!!!        ",
"        @-------T       ",
"       U1-1-1-1-1       ",
"   !!!9'&'&'&'&'&'!!!   ",
"   !!!8-1-1-1-1-1-!!!   ",};
